<?xml version="1.0" encoding="utf-8"?>
<!-- Generator: Adobe Illustrator 22.0.1, SVG Export Plug-In . SVG Version: 6.00 Build 0)  -->
<svg version="1.1" id="Слой_1" xmlns="http://www.w3.org/2000/svg" xmlns:xlink="http://www.w3.org/1999/xlink" x="0px" y="0px"
	 viewBox="0 0 57.6 65.2" style="enable-background:new 0 0 57.6 65.2;" xml:space="preserve">
<style type="text/css">
	.st0{fill:#FFFFFF;}
</style>
<g>
	<path class="st0" d="M46.5,0H10.9C4.9,0,0,4.9,0,10.9v12.4c0,6,4.9,10.9,10.9,10.9h2.3c1.3,0,2.3,1,2.3,2.3v17.8
		c0,6,4.9,10.9,10.9,10.9h20.2c6,0,10.9-4.9,10.9-10.9V10.9C57.4,4.9,52.5,0,46.5,0z M54.3,54.3c0,4.3-3.5,7.8-7.8,7.8H26.4
		c-4.3,0-7.8-3.5-7.8-7.8V36.5c0-3-2.4-5.4-5.4-5.4h-2.3c-4.3,0-7.8-3.5-7.8-7.8V10.9c0-4.3,3.5-7.8,7.8-7.8h35.7
		c4.3,0,7.8,3.5,7.8,7.8L54.3,54.3z"/>
	<path class="st0" d="M35.9,16.3c0,0.9,0.7,1.6,1.6,1.6h4.3v24H31.7l2.9-2.9c0.6-0.6,0.6-1.6,0-2.2c-0.6-0.6-1.6-0.6-2.2,0l-6.6,6.6
		l6.7,6.7c0.3,0.3,0.7,0.5,1.1,0.5c0.4,0,0.8-0.2,1.1-0.5c0.6-0.6,0.6-1.6,0-2.2L31.8,45h13V14.7h-7.4
		C36.6,14.7,35.9,15.4,35.9,16.3z"/>
</g>
</svg>
