<?xml version="1.0" encoding="utf-8"?>
<!-- Generator: Adobe Illustrator 22.0.1, SVG Export Plug-In . SVG Version: 6.00 Build 0)  -->
<svg version="1.1" id="logo_transparent" xmlns="http://www.w3.org/2000/svg" xmlns:xlink="http://www.w3.org/1999/xlink" x="0px"
	 y="0px" viewBox="0 0 600 600" style="enable-background:new 0 0 600 600;" xml:space="preserve">
<style type="text/css">
	.st0{fill:#FFFFFF;}
	.st1{fill:none;stroke:#FFFFFF;stroke-width:2;stroke-miterlimit:10;}
	.st2{filter:url(#Adobe_OpacityMaskFilter);}
	.st3{mask:url(#SVGID_1_);fill:#FFFFFF;}
	.st4{filter:url(#Adobe_OpacityMaskFilter_1_);}
	.st5{mask:url(#SVGID_2_);fill:#FFFFFF;}
	.st6{display:none;fill:#FFFFFF;}
	.st7{fill:none;}
</style>
<g>
	<path class="st0" d="M300.5,16.8c156.4,0,283.2,126.8,283.2,283.2S456.9,583.2,300.5,583.2S17.2,456.4,17.2,300
		S144.1,16.8,300.5,16.8 M300.5,10.8c-39,0-76.9,7.6-112.6,22.7c-34.4,14.6-65.4,35.4-91.9,62S48.5,153,34,187.4
		C18.9,223.1,11.2,261,11.2,300s7.6,76.9,22.7,112.6C48.5,447,69.4,478,96,504.5s57.5,47.4,91.9,62c35.7,15.1,73.5,22.7,112.6,22.7
		s76.9-7.6,112.6-22.7c34.4-14.6,65.4-35.4,91.9-62s47.4-57.5,62-91.9c15.1-35.7,22.7-73.5,22.7-112.6s-7.6-76.9-22.7-112.6
		c-14.6-34.4-35.4-65.4-62-91.9s-57.5-47.4-91.9-62C377.4,18.4,339.5,10.8,300.5,10.8L300.5,10.8z"/>
</g>
<polygon class="st1" points="269.1,397.6 268.8,397.9 268.2,398.6 267.8,398.8 267.5,398.9 267.2,399 267,399.1 266.9,399.4 
	266.7,399.7 266.3,400 265.2,400.6 266.8,399.9 268.9,398.4 273.7,393.8 272.3,394.6 "/>
<path class="st1" d="M306.7,360.5"/>
<path class="st1" d="M311.7,367.3c0.2,0,0,0.1,0,0.1l0.1,0.5l0.3,0.6l0.3,0.5l0.3,0.3l0.3,0.2l1.3,0.3l0.3,0.2l0.3,1.1l0.3,0.3
	l0.5-0.6l0.2,0l0.4-0.2l0.2,0l0.2-0.1l0.3-0.4l0.2-0.1l0.1,0.1l0.3,0.5l1.4,0.8l1.5-0.2l2.8-1.6l0.5,0.1l0.6-0.3l0.5-0.4l0.5-0.2
	l-0.2,0.5l-0.3,0.3l-0.3,0.2l-0.3,0.3l-0.4,0.2l-1,0.1l-0.4,0.3l-1.5,1.2l-0.6,0.8l0.4,0.6l-0.6,0.6l-0.8,0.3l-0.9,0.1l-0.9-0.2
	l-1.1-0.7l-2.3-0.5h-0.4l-1.2,0.2l-1.8-0.4h-1.8l-0.3-0.1l-1.2-0.7l-0.7-0.2l-3.6,0.3l-0.3-0.2l-0.5-0.6l-0.7-0.5l0.3,0.7l2.4,2.5
	l0.3,0.1l0.2,0.2l0.5,1.3l0-0.9l0-0.3l0.1-0.2l0.1-0.2l0.3-0.3l0.3-0.2l0.5,0l0.5,0.1l2.9,1.2l0.9,0.2l0.8-0.1l0.3,0.1l0.9,1.3
	l0.2,0.4l-0.2,0.1h-0.3l-0.3,0.1l-1.1,1l-0.2,0.1l-1.6,0.3l-1.1-0.3l-0.4,0.1l-0.3,0.2l-0.4,0.3l-0.3,0.4l0.1,0.5l0.3,0.3l0.3,0.2
	l0.4,0.1l1.3,0.1l0.2-0.1l-0.1-0.3l-0.1-0.4l0.1-0.4l1.7,1.3l1,0.6l0.6-0.3l0.6,0.5l0.8,1.1l0.3,0.2l0.3,0.1l0.9,0.3l0.5,0.1
	l0.5-0.1l0.6-0.3l-0.1,0.3l-0.1,0.2l-0.4,0.4l0.1,0.2l0.1,0.4l0.1,0.2l0,0.1l0.1,0.4l0,0.1l0.1,0.1l0.3,0l0.5,0.3l4.2,1.2l0.8-0.1
	l0.2-0.1l0.3-0.4l0.2-0.2l0.2-0.1l2.6-0.5l0.8-0.4l0.3-0.1l0.5,0.1l1.1,0.4l0.2,0l0.5,0l0.2,0l0.2,0.1l0.2,0h0.3l2.2-0.4l0.3-0.4
	l-0.2-0.9l1.2,0.6l0.4,0.3l0.2,0.1h0.2l0.3-0.1l0.2,0l0.7-0.3l0.4-0.8l0.3-0.8l0.5-0.5l-0.2,2.1l-0.1,0.4l-0.2,0.4l1.6-0.2l0.5,0.2
	l0.1,0.3l-0.2,0.4l-0.3,0.3l0.1,0h0.1l0.1,0l0.1,0.2l0.4-0.6l0.5,0.1l0.5,0.5l0.6,0.9l0.2,0.2h1.3l0.4,0.2h0.2l-0.4-0.6l0.2-0.4
	l0.5-0.2l0.5,0v-0.2l-0.5-0.4l0-0.4l0.4-0.4l0.4-0.4l0.5-0.2l0.3,0.3l0.6,1.2l0.1,0.5l-0.2,0.3l-0.2,0.3l0,0.3l0.3,1l0,0.2l-0.2,0.3
	l-0.1,0.3l0,0.2l0.2,0.1l-0.1,0.1l-0.2,0.3l-0.4,0.5l0.3,0.2l0.2-0.1l0.2-0.2l0.2-0.1l0.5-0.1l1.2,0.3l0.4,0.2l0.4,0.3l-0.4,0.2
	l-0.7,0.2l-0.3,0.2l-0.3-0.1l-0.1,0.6l0.1,0.7l0,0.3l-0.4,0.1l-0.2,0l-0.1-0.2l-0.1-0.2l-0.2-0.2l-0.2-0.1l-0.2-0.1l-0.2,0l-0.2,0.1
	l-0.4,0.3l-0.5,0.6l-0.5,0.2l-0.2,0l-0.3-0.1l-0.4-0.3l-0.2-0.1l-0.3,0.1l-0.9,0.6l-0.3,0.1l-0.6,0.7l-0.1,0.2l-0.8,0.3l-1.5,0.9
	l-0.7,0.1l-0.7-0.4l-0.3-0.4l-0.2-0.1l-0.2,0.2l0,0.3l0.2,0.2l0.2,0.1l0.1,0.1l-0.1,0.4l-0.3,0.2l-4.7,2.2l-1.4,1l-0.6,0.7l-0.2,0.2
	l-0.1,0.2l-0.1,0.3l0,0.2l0.1,0.3l0,0.2l-0.3,0.1l-0.2,0l-0.4-0.2l-0.2,0l-0.3,0.1l-0.2,0.2l-0.1,0.2l-0.2,0.2l-0.3,0.2l-0.3,0.2
	l-0.4,0.1l-0.5,0.1l-0.4,0.1l-2.4,1.9l-0.6,0.7l-0.3,0.8l0.1,0.4l0.6,1.6l0.5,0.1l0.7,0.4l0.4,0.2h1.5l0.3-0.2l0.7-0.8l0.3-0.2
	l0.4-0.1l3.1,0.3l0.9,0.3l0.8,0.5l1.3,1.2l0.2,0.1l0.4,0.2l0.2,0.1l0.2,0.4l0.2,0.3l0.5,0.3l0.7,0.9l0.3,0.3l0.9,0.3l0.4,0.2
	l0.2,0.4l0.2,0.3l0.5-0.1l0.7-0.4l0.8-0.3l0.9-0.1l0.4,0.2l1.1,1.1l1.4,0.9l0.5,0.7l0.3,1.2l0.1,0.8l0.1,0.3l0.4,0.7l0.1,0.2
	l0.1,0.5l0.2,1.2v0.7l-0.1,0.6l-0.1,0.5l-0.2,0.4l-0.8,0.3l-0.3,0.4l-0.2,0.5l-0.1,0.6l-0.1,0.2l-0.1,0.1l-0.2,0.1l0.2,0.4l0.1,0.4
	l0.1,0.8l0.2,0.6l0,0.3l-0.1,0.5l-0.2,0.3l-0.3,0.3l-0.2,0.4l0,0.4l0.2,0.2l0.7,0.1l0.3,0.1l-0.4,0.2l-1.1,0l-0.3,0.1l-0.2,0.1
	l-0.2,0l-0.4,0l-0.2,0.1l-0.5,0.3l-0.2,0.1l-0.6,0.1l-0.1-0.1l0,0.3l0.2,0.3l2.2,1.6l0.3,0.3l0.4,0.3l0.4,0l0.4-0.1l0.4,0l0.2,0.2
	l0.6,0.8l0.1,0.3l0.1,0.6l0.3,0.3l1.6,0.7l0.4,0.1l1.4,0l0.2,0l0.4-0.1h0.3l1.3,0.5l0.5,0.1l0.4-0.1l2.2-1.1l0.5-0.1l0.3-0.1
	l0.7-0.5l0.2-0.2l0.3-0.5l0.2-0.4l0.3-0.3l1-0.2l0.3-0.2l0.4-0.7l0.1-0.1v-0.2l0.1-0.1l0-0.1l0.2,0h0.3l0.5,0.1l0.2-0.1l0.2-0.4
	l0.8-2.1l0.7-1.2l0.2-0.3l0.1-0.2l0.8-1.2h0.1l0,0v0.1l0,0.1l0.5-0.6l0.7-0.3l1.7-0.4l0.8-0.3l1.5-1l0.8-0.3l1.4,0.3l0.3-0.2
	l0.3-0.2l0.7,0.2l0.4-0.1l0.2-0.1l0.1-0.2l0.2-0.2l0.2-0.1l0.2,0l0.7,0l0.4,0.2l0.3,0.4l0.2,0.4l0.2,0.3l0.9,0.1l0.6-0.9l0.4-1.3
	l0.5-0.9l0.4-0.2l0.9-0.2l0.4-0.3l0.5-1l0.4-0.3l0.5,0.3l0.1-0.1l0.2-0.2l0.1-0.1l1,0.8l-0.1-0.9l0-0.4l0.2-0.3l0.3-0.1l0.7,0.1
	l0.3-0.1v-0.2l-0.6-0.3l-0.1-0.1l-0.1-0.3l0.1-0.2l0.1-0.2l0.1-0.3l0.2-0.2l1.1-0.9l0.8-0.4l0.9-0.2h0.9l0.9,0.2l1.5,0.6l1.4,0.9
	l0.2,0.2l0.6,0.8l0.1,0.3l0.2,0.7l0.4,0.2l1.4-0.3l1.6,0.1l0.3-0.3l0.4-0.7l0.5-0.5l0.7,0.3v-0.2l1.2,0.7l1.8,0.4l0.4-0.1l0.1-0.2
	l0.1-0.5l0.1-0.2l0.2-0.1l0.2-0.1l1.8-0.1l1.5-0.6l0.3-0.3l0.1-0.4l-0.3-0.4l-0.6-0.6l-0.1-0.6V413l0.2-1.7l0.2-0.6l0.2-0.6l0.3-0.4
	l0.2-0.1l0.5,0l0.2-0.1l0.1-0.3l-0.1-0.1l-0.1-0.1l-0.1-0.2l0.1-0.6l0.3-0.3l0.4-0.1l0.5,0.1l0.6,0.3l0.2,0.1h0.3l0.7-0.2l0.2-0.3
	L408,407l-0.4-1l-0.3-0.4l-0.3-0.2l-0.3,0.1l-0.4,0.4L406,406l-0.3-0.3l-0.5-0.7l-0.4-0.1l-1.2,0.3l-0.4-0.1l-0.6-0.4l-0.4-0.1
	l-0.2,0.1l-0.2,0.2l-0.2,0.2h-0.3l0.2-0.5l-0.2-0.4l-0.3-0.1l-0.3,0.3l-0.3,0.3l-2.4,0l-0.4,0.2l-0.4,0.4l-0.6,0.4l-0.1,0.1
	l-0.3,0.9l-0.6,0.8l-0.8,0.2l-0.8-0.3l-1.6-0.9L392,406l-0.2-0.4l0.1-0.5l0.2-0.5l-0.1-0.3l-0.5-0.1l-0.3,0.2l-0.3,0.4l-0.2,0.6
	l-0.1,0.6l-0.1,0.1l-0.3,0.4l-0.1,0.1l-0.3,0.1l-0.1,0.2l0,0.3l-0.1,0.3l-0.6,0.6l-0.4,0.3l-3.7,1l-0.8-0.1l-3.1-2.2l-6-8.9
	l-1.8-3.6l-1.1-3l-0.2-0.4l-0.2-0.3l-0.2-0.4L371,387l-0.2-0.5l-0.1-0.4l-0.1-1.9l-0.1-0.5l0-0.2l0-0.3l0.1-0.3l0.4-0.5l0.1-0.1
	l0.9-0.4l0.1-0.3l0-0.3l0.2-0.3l0.2-0.1l0.1,0.1l0,0.2l0.1,0.2l0.3,0.1h0.2l2-0.5l0.9-0.6l0.7-0.8l1.2-1.9l0.7-0.7l0.2-0.3l0.1-0.5
	l-0.1-0.3l-0.1-0.2l-0.1-0.4l-0.2-0.4l-0.4-0.6l-0.2-0.6l0.4-0.6l0.1,0.6l0.2,0.6l0.3,0.4l0.3,0.2l0.3,0.3l0.2,0.1l0.2,0.1l0.3,0
	l0.2,0.1l-0.4,1.1l-0.1,0.8l0.2,0.7l0.5,0.4l0.4,0l0.4-0.3l0.4-0.4l-0.1,0.8l-0.3,0.5l-0.8,0.8l-0.6,1.1l-0.2,0.5l-0.5,0.6l-0.6,1.2
	l-1.1,0.6l-2.2,0.7l0.1,0.3l0.1,0.1l-0.7,0.5l-0.7,0.8L374,386l0.4,0.1l0.8-0.4l0.5-0.4l0.7-0.2l0.5-0.4l0.8-0.3l0.5-0.5l0.5-0.7
	l1.1-2.3l0.4-0.5l2-3.3l0.3-0.3l0.7-0.5l0.3-0.3l0.6-0.9l0.3-0.4l0.4-0.3l2.4-1.3l0.7-0.6l1.7-2l0.6-0.5l1.1-0.7l1.5-0.9l0.5,0
	l2.8-0.6l1.5,0.2l0.8-0.2h0.4l0.4,0.2l0.1,0.1l0.1,0.1l0.2,0.4l0.1,0.1l0.2,0.2v0.2l0,0.2l-0.1,0.1l0.1,0.3l0-0.1l0-0.2l0.2-0.1
	l0.2-0.1l0.1,0.1v0.4h0.2l0.1-0.9l0.4-0.7l1.4-1.5l0.6-0.5l0.7-0.3l1-0.2l0.9-0.5h1.4l0.2-0.1l0.2-0.2l0.2-0.2l0.3-0.1l0.6,0.2
	l0.4,0l0.3-0.2l0.3,0.2l0.7,0.2l0.3,0.2l0.8,0.9l0.2,0.1v0.6l-0.3,1.1l-0.4,0.8l-0.4-0.2h-0.2v0.2l0.5,0.2l0.5-0.5l0.4-0.8l0.2-0.8
	l0.2-0.7l0.4-0.7l0.3-0.7l-0.2-0.7l0.7-0.1l1.1-1.1l0.7-0.3l0.2-0.1l0.7-0.6l0.2-0.1l0.4-0.1l2.4-7.9l1-0.8l0.4-0.1l0.7,0.1l0.7,0.4
	l0.5,0.6l-0.1,0.8l0.5-0.2l0.3-0.5l0.5-1.1l2.2-3.1l1.3-1.4l0.7-0.3l2.7,0.5l0.9,0l2.2-0.8l1.8,0.3l0.2-0.1l0.5,0.1l0.8,0.3l0.2-0.1
	l0.5-0.3l0.1-0.1l0.1-0.1l0.7,0.6l0.5,0.2v0.5l-0.5,1l0.7-0.3l1.1-1.6l0.4-0.4l-0.3-0.8l-0.1-1l0.1-0.9l0.4-0.7l0.4-0.3l0.5-0.2
	l0.4-0.3l0.3-0.4l0.1-0.6l-0.2-0.3l-0.3-0.2l-0.4,0l-0.8,0.1l-0.4-0.1l-0.3-0.3l0.1-0.5l0.3-0.6l0.6-0.9l0.5-0.9l0.1-0.9l-0.1-2.2
	l0.3-1.1l0.4-1.1l0.5-0.9l0.7-0.5l4.3-0.6l0.5-0.2l0.4-0.3l0.8-0.9l0.4-0.3l0.3-0.1l0.7,0.3l0.4-0.1l0.2-0.5l0.2-1.3l0.4-1.4
	l0.5-1.2l0.7-0.9l1-0.4l3.4,0.1l1.1,0.8l0.4,0.1l0.4,0l0.8-0.2l3.1-0.1l0.4,0.1l0.7,0.5l0.4,0.2l0.5,0l0.9-0.3l0.5,0.2l0.6,0.1
	l1.3-0.3l0.6,0.1l2.1,0.6l0.7-0.1l0.5-0.5l0.3-0.8l0.2-0.9l0-0.2l-0.1-0.4v-0.2l0.1-0.3l0.2-0.5l0.1-0.2l0.1-0.5l0-0.3l-0.3-0.7
	l-0.2-0.3l-0.2-0.2l-0.1-0.2l0.2-0.3l0.2-0.2l1.1-0.2l0.1,0l0.1-0.1l0-0.3l-0.3-1l0.1-0.7l0.3-0.6l1-2l0.4-0.5l1-0.8l0.4-0.4
	l0.3-0.6l0.1-0.6l-0.3-0.5L477,311l-1.1,0.4l-0.4,0.1l-1.4-0.9l1.4-1.2l0.4-0.5l0.5-0.5l-0.2-0.3l-0.2-0.4l-0.2-0.8l-0.6-1.4
	l-0.2-0.2l-0.2-0.3l-0.1-0.5l0.1,0l0.2,0l0.2-0.1l0.1-0.3l0-0.1l-0.1-0.1l-0.1-0.2l0-0.2l-0.2-0.8l-0.4-0.6l-0.5-0.3l-2.5-0.3
	l-0.4,0.2l-0.8,0.1l0.2-0.8l1.3-4.3l0.2-0.3l0.5-0.2l0.2-0.3l0.1-0.4l0.2-0.3l0.4-0.5l0.4-0.2l0.5,0l2.3,0.9l0.8-0.1l0.9-0.7
	l0.4-0.5l0.3-0.6l-0.1-0.6l-0.4-0.5l-0.5-0.1l-0.4,0.4l-0.4,0.5l-0.4,0.2l-0.3-0.1l-0.4-0.5l-0.2-0.2l-0.2-0.1l-0.7,0.1l-1.6-0.4
	l-0.5-0.2l-0.2-0.3l-0.2-0.4l-0.3-0.6l-0.4-0.4l-0.4-0.3l-0.3-0.4l0.2-1.6l0.4-0.3l1,0.1l1.7-0.6h0.6l0.6,0.1l0.3,0l0.2-0.2l0.1-0.3
	l-0.1-1l0.1-0.4l0.4-0.8l0.6-0.6l1.2-0.8l0.4-0.4l0.7-1.1l0.4-0.3l0.5-0.3l0.2-0.3l0-1.2l0.3-1.1l0.1-0.6l-0.2-0.5l-1-1.2l-0.8-1.3
	l-0.4-0.9l-0.1-1l0.4-1.1l0.4-0.3l0.8-0.5l0.3-0.4l0.1-0.7l-0.3-0.3l-2-0.6h-0.4l-0.5,0.2l-1.2,1.3l-0.5,0.3l-0.6,0.2l-0.6,0.1
	l-0.6,0l-0.4-0.2l-1.1-1.1l-0.8-0.4l-0.7-0.2l-0.6-0.4l-0.5-1.1l-0.3-1.4l-0.2-0.7l-0.3-0.3l-1.2-0.1l-0.4-0.2l-0.8-0.5l-0.8,0.2
	l-0.8,0.4l-0.8,0.2L463,265l-0.6-0.4l-0.5-0.7l-1.1-3l-0.5-0.5l-0.8,0.3l-0.4,0.4l-0.7,1l-0.4,0.3l-0.3,0.1l-2,0.1l-0.5-0.6
	l-0.5-0.8l-0.7-0.7l-2.2-0.6l-1.2-0.9l-0.1-0.1l-0.1-0.3l-0.1-0.5l-0.2-0.6v-0.1l-0.1,0.1l-0.5,0.2l-0.2,0.1l-0.2,0.1l-1-0.2
	l-1.5,0.3l-0.8-0.3l-0.5-0.3l-0.4-0.2l-0.9-0.1l-0.4-0.2l-0.2-0.4l-0.6-1.9l-0.3-0.4l-0.4-0.1l-0.6,0.1l-1.3-0.1l-0.3,0.1l-0.2,1
	l0.2,1.5l-0.1,1.4l-1,0.7l-0.2-0.1l-0.4-0.3l-0.2-0.1l-0.3,0.1l-1.4,0.9l-0.1-0.2v-0.5l-0.3,6.4l0-0.1l-0.7-1.2l-0.6-0.8l-0.7-0.6
	l-0.8-0.5l-1.6-0.8l-0.7-0.5l-2-3.1l-0.7-0.7l-0.2-0.2l0-0.3l0.1-0.3l0.2-0.8l-0.1-1.4l-0.7-0.7l-1.8-0.9l-0.3-0.9l-0.3-1.1
	l-0.3-0.8l-0.4-0.2l-2.1,0.3l-0.6,0.3l-1.2,1.3l-0.6,0.5l-3-6.1l-1.5-0.2l-1.4,0.1l-1.4,0.5l-3.4,2.1l-0.3,0.3l-0.2,0.3l-0.3,0.7
	l-0.2,0.3l-0.4,0.3l-0.5,0.1l-0.5-0.1l-0.4-0.2l-0.3-0.3L406,249l0.1-0.3l0-0.7l0.1-0.1l-0.1-0.1l-0.3-0.2l-0.2-0.1l-0.6-0.2
	l-0.6-0.4l-0.5-0.1l-0.4-0.3l-0.2-0.1H403l-0.2,0.1l-0.4,0.4l-0.5,0.3l-0.5,0.2l-0.5,0l-0.5-0.2l-2.1-3.3l-0.6-0.3l-0.2-0.6
	l-0.6-0.3l-3.6,2.7l-2,0.2l-0.4,0.1l-0.3,0.2l-0.4,0.6l-0.2,0.2l-0.2,0.1h-0.4l-0.2,0.1l-0.3,0.4l-0.2,0.4l-0.3,0.3l-0.5,0.2l-0.4,0
	l-0.4-0.1l-0.4-0.2l-0.4-0.3l-0.4-0.5l-0.1-0.5l0-0.6l-0.2-0.8l-0.3-0.6l-0.4-0.3l-0.4-0.2l-0.4-0.1l-0.7-0.3l-0.4,3.2l-1-4l0-0.4
	l0.3-0.4l1.6-0.7l-0.5-0.6l0-0.7l0.1-0.8l-0.2-0.9l-0.2-0.3l-0.2-0.2l-0.5-0.3l-0.3-0.3l0-0.3l0.1-0.4l-0.1-0.5l-0.2-0.4l-0.4-0.6
	l-0.2-0.4l0-0.5l0.1-0.4l0-0.4l-0.3-0.4l-0.3-0.2l-0.5-0.1l-0.2-0.2l-0.1-0.3v-0.9l-0.1-0.4l1.1-0.2l0.3-0.3l0.2-0.6l-0.2-0.4
	l-0.4-0.2l-0.4-0.1l-0.7-0.1l-1.4,0.3l-0.7-0.1l-0.6-0.6l-0.4-1.1l-0.5-3.1l-0.2-0.5l-0.3-0.3l-0.4-0.2l-0.4,0.1l-0.4,0.2l-0.4,0.1
	l-0.4-0.3l-0.4-0.2l-0.3,0l-1,0.6l-1.7,0.7l-1.4,0.3l-1.5-0.1l-0.4-0.1l-0.3-0.3l-0.2-0.5l-0.1-0.5l-0.1-0.4l-0.3-0.3l-0.6-0.1
	l-1.3,0.2l-0.7-0.3l-1.5-0.5l-0.8-0.1l-0.7,0.2l-0.8,0.7l-0.4,0.2L359,223l-1.5-0.7l1.2-0.8l0.8-0.9l0.5-1.1l-0.2-1.1l-0.4,0.2h-0.3
	l-0.4-0.1l-0.3-0.2l-0.3-0.2l-0.4-0.4l-0.2-0.3l-0.1-0.3l0.1-0.2l0.5-0.1l0.1-0.3l0.1-0.3l-0.1-0.3l-0.1-0.3l0-0.3l0.1-0.3l0.2-0.6
	l0.1-0.3l-0.1-0.7l-0.2-0.6l-0.3-0.5l-0.9-1l-0.2-0.3l-0.1-0.3l-0.1-0.7l-0.1-0.2l-0.3-0.2l-0.7-0.2l-0.2-0.3l0.2-0.8l0.8-0.5
	l3.5-0.8l1.2,0l0.4-0.1l0.8-0.9l0-1.4l-0.6-1.3l-0.8-0.8l-0.4-0.3l-0.7-0.8l-0.4-0.3h-0.2l-0.4,0.2l-0.2-0.1V201l-0.1-0.5l-0.1-0.2
	l-0.1-0.1l-0.3-0.2l-0.1-0.1l-0.8-1l-0.4-0.3h-1v-0.3l0.2-0.5l-0.1-0.6l-0.4-0.7l-0.3-0.6l-0.1-0.7l-0.1-1.1l-0.1-0.6v-0.2l0.4-0.8
	v-0.4l-0.1-0.3l-0.1-0.3l-0.2-0.4l-0.3-0.6l-0.3-0.4l-1.3-0.9l-0.3-0.4l-0.5-1.2l-0.4-0.6l-0.9-0.6l-0.4-0.4l-0.3-0.6l-0.2-0.5
	l-0.2-0.3l-0.5-0.2l-0.9,0l-0.9,0.2l-1.8,0.9l-1.4,1.4l-0.4,0.1l-0.4-0.6l0.1-1.3l-0.4-0.6l-0.3,0.2l-0.3,0.3l-0.3,0.2l-0.4,0
	l-0.3-0.2l-0.6-0.4l-0.4-0.1h-1.3l-2-0.4l-0.3,0.1l-0.3,0.2l-0.5,0.7l-0.3,0.3l-0.4,0.2l-0.2,0.1l-0.2,0.5l-0.2,0.2l-0.2,0.1
	l-0.3-0.2l-0.2,0l-0.4,0.2l-2.1,1.9l-0.4,0.2l-0.4-0.1l-0.6-0.5l-0.3-0.2h-0.6l-1.2,0.3h-0.6l-4.1-2.2l-1,0.3l-1.8-0.7l-0.8,0.2
	l-0.3,1.2l0.1,0.4l0.4,0.7l0.1,0.3l-0.1,0.4l-0.2,0.2l-0.3,0.2l-0.2,0.2l-0.2,0.6l-0.3,2.1l-0.6,1.3l-0.9,0.7l-2.9,1.4l-0.4,0
	l-1.3-0.3l-0.8,0.1l-1.1,0.6l-0.3,0.1l-0.4-0.2l-0.1-0.5v-0.6l-0.1-0.6l-0.5-0.5l-0.7-0.1l-1.3,0.1l-2.4,0.1l-3.6-0.7h-1.9l-1.6,0.7
	l-0.4,0.5l-0.3,0.7l-0.3,0.6l-0.5,0.2l-0.5-0.2l-1-0.8l-0.5-0.3l-0.8-0.1l-2.8,0.2l-0.5,0.2l-0.3,0.4l0.1,0.6l-0.1,0.2l-0.1,0.2
	l-0.1,0.2l-0.1,0.2l0.6,0.1l0.2,0.5l-0.2,0.4l-0.5,0l-0.1-0.2l-0.1-0.1l-0.1,0.1l-0.2,0.1l-0.2,0.2l-0.1,0.2v0.3l-0.2,0.3l-0.2,0.3
	l-0.3,0.2l-0.3,0.2l-0.6,0.2v0.1l0.1,0.2l0.1,0.1v0.2l-0.3,0.4l-0.2,0.2l-0.2,0.1l-0.6-0.1l-0.2,0.1l-0.1,0.2v0.3l-0.1,0.3l-0.4,0.2
	l-0.1,0.2l-0.1,0.2l-0.1,0.1l-0.1,0.1l-0.4,0.6l-0.1,0.2l-0.1,0.1v0.1l0.2,0.3l0,0.5l-0.4,0.4l-0.5,0.3l-0.3,0.3l0.4,0.2l0.2,0v0.3
	l-0.2,0.3l-0.1,0.4l0,0.4l-0.1,0.3l-0.2,0.1l-0.7,0l-0.3,0.1l0.1,0.4l-0.2,0.7l0.1,0.5l-0.2,0.1l-0.2,0.3l-0.1,0.1l0.1,0.1l0.1,0.3
	l-0.3,0.1l-0.6,0.6v0.2l0.4,0.3l0.2,0.1v0.2l-0.2,0.1l-0.1,0.1l-0.1,0.1l-0.1,0.1v0.2l0.2,0.3l0.7,0.2l0.3,0.2l-0.2,0.4l-0.1,0.2
	l-0.2,0.2l0.3,0.2l0.2,0.2l0.1,0.3l-0.1,0.3l0.1,0.4l0.2,0.3l0.2,0.1l0.2,0.1v0.2l-0.3-0.1l-0.2,0.1l-0.2,0.2l-0.1,0.4l0.1,0.4
	l0.2,0.1h0.2l0.3,0.2l0.1,0.2l0.2,0.9l0.1,0.2l0.2,0.2l0,0.2l-0.3,0.1l0.1,0.9l-0.6,0.6l-0.6,0.5l-0.1,0.5l-0.4,0.7l-0.1,0.1l0,0.8
	l-0.1,0.2l-0.2,0.1l-0.2-0.3l-0.2-0.3l-0.3-0.2l-0.3-0.1l-0.3,0l-0.3-0.1l-0.5-0.7l-0.3-0.3l-0.3-0.1h-0.6l-0.3-0.1l-0.3-0.3
	l-0.6-0.8l-0.2-0.3l0.1,0l0.2-0.7l0-0.3v-0.3l0-0.3l-0.1-0.2l-0.2-0.2l-0.3-0.3l-1-0.5l-0.3-0.3l-0.8-1.1l-0.6-0.4l-0.6-0.2
	l-2.9,0.1l-0.5,0.2l-1.2,0.7h-0.3l-0.3-0.2l-0.2,0l-0.3,0.2l-0.3,0.6l-0.2,0.2l-0.4,0.1l-1.9-0.3l-0.3-0.4l-0.2-0.5l-0.3-0.6
	l-0.4-0.3l-0.4-0.1l-0.5,0.1l-0.4,0.2l-0.4,0.4l-0.2,0.4l-0.3,0.4l-0.5,0.2l-0.5,0.1l-0.3,0.2l-0.2,0.4l-0.3,0.8l-0.3,0.6h-0.4
	l-0.9-0.4l-0.5,0.2l-0.8,0.7l-0.4,0.2l-0.5-0.3l-0.3-0.6l-0.2-0.7l-0.2-0.7l-0.4-0.5l-0.3-0.3l-0.1-0.4l0.2-0.9l-0.1-0.9l-0.2-0.6
	l-0.7-1.1l-0.4-1.2l-0.3-0.4l-0.5-0.3l-0.8-0.2l-0.4,0l-0.4,0.2l-0.4,0.4l-0.5,1.1l-0.4,0.4l-0.5,0.2h-1.3l-0.6,0.1l-0.6,0.4
	l-0.7,0.5l-0.6,0.7l-0.4,0.9L245,215l0.1,1.3l-0.1,0.5l-0.4,0.4l-0.2-0.3l-0.2-0.6l-0.2-0.4l-0.3,0l-0.3,0.2l-0.3,0.1l-0.3-0.2
	l-0.2-0.3l-0.1-0.5l-0.3-1.9l-0.1-0.7l-0.2-0.4l-0.5-0.2l-1.8-0.4H239l-0.5,0.2l-1,0.7l-0.5,0.5l-0.3,0.2l-0.3-0.1l-0.1-0.3
	l-0.2-0.9l-0.1-0.3l-0.3-0.3l-0.6-0.4l-0.3-0.3l-0.2-0.4l0-0.3v-0.3l-0.1-0.3l-0.3-0.3l-0.4,0l-0.5,0.2l-0.4,0.4l-0.4,0.6l-0.7,1.3
	l-0.5,0.4l-0.4,0.2h-2l-0.4-0.1l-0.4-0.2l-1.2-1.4l-0.4-0.2l-0.5,0.1l-0.4,0.4l-0.3,0.6l-0.1,0.7v0.4l0,0.4l0,0.4l-0.1,0.4l-0.1,0.2
	l-1,1.3l-0.2,0.2l-0.3,0.1l-0.3-0.1l-0.3-0.3l-0.3-0.3l-0.1-0.3l0.7-1.7l0.2-0.8l-0.3-0.7l-0.3-0.2l-1.2,0l-2.2-0.9l-0.7,0l-0.4,0.2
	l-0.6,0.6l-0.4,0.2l-0.4,0l-1.2-0.2l-0.8,0.3l-0.4,0.1l-0.3-0.3l0.1-0.6l0.3-0.7l0.1-0.6l-0.6-0.2l-0.5,0.1l-0.4-0.1l-0.3-0.3
	l-0.2-0.7v-0.9l0.1-0.7l-0.1-0.5l-0.5-0.3l-0.9-0.2l-1.8-0.1l-2.1,0.7l-1.4-0.2l-3.9-1.8l-4.6-0.2l-0.3-0.2l-0.3-0.4l-0.1-0.3
	l0.1-0.3v-0.2l-0.2-0.1l-4.8-0.2l-0.6-0.3l-1.3-1.2l-0.6-0.1l-1.4,0.1l-4.4-0.8l-1.7,0.3l-6.9-0.1l-3.5-0.9l-0.9,0l-0.9,0.3l-1.8,1
	l-5.8,0.9l-0.4,0l-1.3-0.3l-5.2,0.4l-0.4,0.2l-0.4,0.5l-0.8,1.1l-0.3,0.7l-0.5,2.2l-0.6,0.8l-2.3,1.6l-3.1,2.8l-0.8,0.1l-0.6-0.6
	l-0.6-0.7l-0.8-0.3l-0.5-0.1l-1.5-0.4H141l-2,0.5l-0.3,0.1l-0.2,0.2l-0.3,0.4l0,0.3l0.1,0.3l0.6,1.6l0.1,0.3l-0.1,0.5l-0.2,0.1
	l-0.2-0.2l0,0.2l0.1,0.5l0.5,0.2l0.4,0.1l0.3,0.2l-0.3,0.7l0,0.2l0.8,1.3l0.2,0.4l-0.2,0.1l-0.2,0.2l0,0.3l0.1,0.4l-0.4,0.2
	l-0.4,0.4l-0.3,0.5l-0.1,0.4l0.1,0.7l0.3,0.2h0.4l0.3,0.2l1.1,2.6l0.5,0.6l1,0.7l1,1l0.2,0.4l-0.3,0.2l-0.1,0.3l0.3,0.7l0.5,0.8
	l0.2,0.4l0.2,1.4v0.2l-0.1,0.3l0.2,0.1l0.3,0.1l0.3,0.2l0.2,0.3l0.1,0.3l0,0.3l0.1,0.4l0.3,0.5l1.4,1.3l1.7,1l0.3,0.4l-0.3,0.6
	l-0.6,0.1h-0.7l-0.4,0.2l-0.5-0.3l-0.6,0.1l-0.5,0.4l-0.3,0.6l0,0.6l0.3,0.4l0.5,0.2l0.6,0.1v0.2l-0.3,0.6l0.3,0.5l0.6,0.3l0.5,0.1
	l-0.1,0.8l0.2,0.7l0.5,1.3l-0.5,0.8l0.2,1.6l0.1,0.4l0.1,0.1l0,0.1l-0.3,0.4l-0.4,0.4l-1.3,0.7l-0.1,0.4l0,0.6l0,0.4l-0.1,0.3
	l-0.5,1.1l-1.1,0.5l-3.7,0.1l-0.7,0.2l-0.4,0.2l-0.3,0.3l-0.2,0.5l-0.3,0.9l-0.3,0.4l-1.6,1.8l-0.6,0.5l-1.1,0.9l-0.9,0.7l-4.7,5.2
	l-0.6,1l-0.8,0.6l-0.8,0.9l-2.2,3.3l-0.9,0.9l-0.1,0.3l-0.2,0.7l-0.1,0.2l-0.2,0.2l-0.4,0.1l-0.2,0.1l-0.2,0.2l-1.3,2.3l-0.3,0.4
	l-0.2,0.1l-0.4,0.1l-0.2,0.2l-0.2,0.3l-0.4,1l-1.6,2.1l-0.5,1.2l0.4,1.2l0.1,0.5l0.1,1.4l0.1,0.4l0.1,0.2l0.3,0.4l0.4,0.5l0.1,0.2
	l0.1,0.5l0.3,2.9l-0.1,0.5l-0.3,1l-0.3,1.1l-0.3,0.7l-0.1,0.4l0.1,0.2l0.1-0.1l0.3-0.3l0.3,0.2h0l-0.1,0l0.7,0.5l0.6,0.8l0.4,0.3
	l0.9,0.5l0.3,0.3v0.3l-0.2,0.6l0,0.4l0.1,0.3l0.3,0.6l0.1,0.2l-0.2,0.5l-0.4-0.2l-0.5-0.4l-0.4-0.2l-0.2-0.1l-0.4-0.6l-0.2-0.2
	l-0.2,0l-0.5,0.2l-0.8-0.1l-0.4,0.1l-0.4-0.1l-0.5-0.3l-0.8-0.9l-0.4-0.1l-0.4,0.4l-0.2,0.5l-0.2,0.7l-0.1,0.7v0.5l-0.3,0.3
	l-0.8,0.1l-0.4,0.3l-0.4,1.3l-0.3,0.6l0,0.2v0.4l-0.1,0.2l-0.2,0.3l-0.5,0.4l-0.2,0.3l-0.1,0.4v0.2l0,0.3l0.1,1.1l-0.1,0.2l-0.2,0.4
	l-0.2,0.3l-0.2,0.2l-0.2,0.2l-0.1,0.4l0,0.7l-0.1,0.7l-0.3,0.6l-0.3,0.4l-0.3,0.2l-0.5,0.2l-0.3,0.2l-0.2,0.2l-0.2,0.5l-0.1,0.2
	l-1.4,1.1l-0.3,0.5L108,310l0.2,1.3l-0.1,0.5l-0.2,0.5l0,2.3l0.5,0.1h0.1l0.2-0.2l0.7-0.3l0.7,0.1l0.7,0.4l-0.3,0.9v0.5l0.6,0l0.2,0
	l0.2,0.3v0.3l-0.1,0.4l0,0.4l0.2,0.6l1,1.6l0.1,0.1l0.2,0l0.2-0.1l0.2-0.1l0.1,0h0.2l0.4,0.2l0.3,0.1l0.3,0l0.4-0.2h0.1l0.1,0l0.1,0
	l1.5,2.1l0.3,0.6l0.3,1l0.4,0.7l0.1,0.1h0.1l0.3-0.2h1.5l0.4-0.1l0.3-0.2l0.4-0.1l0.3,0.2l0.1,0.2l0.8,0.4l0.6,0.6l0.3,0.3l0.2,0.4
	l0.2,0.6l-0.1,0.3l-0.1,0.3l0,0.5l-0.4,0.4l0.2,0.4l0.8,0.6l0.4-0.1l0.4-0.3l0.2-0.4l-0.2-0.7l0.2-0.4l0.3,0l0.4,0.2l0.3,0.2
	l0.3,0.2l0.3,0.1l0.3-0.1l0.9-0.7l0.3-0.5l0.5-1.4l0.4-0.6l0.4-0.2l0.5,0.1l1.4,0.5l0.4,0.3l0.9,1l1,0.8l0.5,0.6l0.2,0.1l0.2,0h0.2
	l0.2-0.1h0.1l1.4,0.7l0.4,0l0.2-0.1l0.1-0.2l0.1-0.2l0.1-0.2l0.2-0.2l0.2-0.1l0.8-0.2l0.4,0.1l1.3,0.2l0.9,0.3l0.5,0.1l1.4-0.1
	l0.3,0.2l1.1,1l0.1,0.5h0.4l2.1-0.9l0.6,0l0.3,0.3l1,0.3l0.4,0.2l0.8,0.7l0.4,0.1l0,0l1.2,0.5l0.4,0l1.5-0.8l1,0l0.8-0.7l0.5-0.3
	h0.4l1.2,0.3l1.2,0l0.4,0.1l1,0.6l0.5,0.4l0.3,0.4l0.1,0.5l0,0.4l0.1,0.4l0.4,0.4l0.7,0.4l1.7,0.7l0.3,0.3l0.3,0.4l0.7,1.3l0.5,0.8
	l0.4,0.3l2.4-0.4l1.3-0.6l0.9-0.8l2-3.4l0.9-0.6l10.2-1.1l1.4-0.6l1.1-0.1l0.6-0.3l0.3-0.1l1,0.1l1.3-0.4l2,0l1-0.4l0.2-0.3l0.5-1.1
	l0.3-0.3l0.5-0.5l0.3-0.3l0.3-0.7l0.3-1l0.2-1l0-0.7l0.2-1l0.2,0.1l0.4,0l0.4-0.1l0.7-0.3l0.3-0.1l1-0.1l0.3-0.1l2.6-0.6l0.6-0.3
	l0-0.3l0.1-0.4l0.2-0.4l0.7-0.4l0.1-0.4l0.1-0.3l0.4,0.2l0.3,0.3l0.2,0.4l0.3,0.3l0.4,0.2l0.4,0l0.2-0.2l0.1-0.4V317l-0.1-0.6
	l-0.1-0.4l0-0.3l0.2-0.3h0.1l0.3,0.1h0.2l0.2-0.2l0.1-0.2l0.1-0.2l0.2-0.1l0.7,0.3l0.7,0.6l0.7,0.4l0.8-0.1l0.2-0.2l0.2,0l0.1,0.1
	l0.2,0l0.3,0.1l0.1-0.1l0-0.2l-0.1-0.2l0-0.1v-0.2l-0.1-0.3l0-0.2l0.2-0.1l0.2,0.1l0.4,0.3l2.2,0.8l0.7,0l0.8-0.4l1.3-1.6l0.8-0.4
	l0.4,0.1l0.6,0.6l0.3,0.1l0.3-0.2l1.2-1.1l0.5-0.7h0.9l0.2-0.1l0.5-0.4l0.4,0.1l0.1,0.8l0.4,0.2l2.6,0l0.7,0.3l1.3,1l0.3,0.3l0.6,1
	l0.2,0.2l0.5,0.7l0.8,0.3l1.8,0.2l0.4,0.2l0.3,0.4l0.1,0.6l-0.4,1.2l0.3,0.2l0.5,0l0.3-0.1l0.6-0.6l0.3-0.1l0.2,0.5l0.1,0.6l0.2,0.4
	l0.3,0.1l0.5-0.1l0.4-0.3l0.3-0.3l0.3-0.2l1-0.1l0.4,0.1l0.2,0.3l0.1,0.6l-0.2,0.6l-0.2,0.3l-0.3,0.2L236,322l-0.1,0.4l0.1,0.4
	l0.2,0.3l0.4-0.1l0.3-0.4l0.2-0.5l0.3-0.4l0.5-0.1l0.3,0.2l0.2,0.4l0,0.5l-0.3,0.4l0.6,1.2l0.3,0.3l0.4,0.3l0.2,0l0.1-0.3v-0.5
	l0.2-0.7l0.4-1.1l0.5-0.2l0.7,0l1.9,0.8l1.4,0l0.8,0.1l0.6,0.4l0.1,0.2l0.1,0.2l0,0.2l0.1,0.2l0.3,0.8l0.2,0.8l0,0.2l0.1,0.2
	l0.3,0.3l0.5,1l0.7,0.7l0.7,0.6l0.6,0.3l0.8-0.2l0.9-1.2l0.7-0.3h0.4l0.3,0.1l0.3,0.2l0.2,0.4l0.2,0.5l0.2,1.1l0.2,0.4l0.3,0.2
	l0.8,0.3l0.2,0.2l-0.1,0.4l-0.3,0.4l-0.4,0.4l-0.3,0.3l-0.2,0.6v0.3l0.2,0.2l0.7,0.3l0.3,0.2l0.1,0.3l-0.2,0.4l-0.6,0.8l-0.1,1
	l0,1.1l-0.2,1.2l-0.5,0.9l-0.5,0.7l-0.3,0.8l0.3,1.2l0.2,0.4l0.3,0.9l0.2,0.3l0.4,0.3l0.2-0.2l0.2-0.3l0.3-0.2l0.3,0.2l0.4,0.7
	l0.6,0.4l0.2,0.3l0.1,0.4l0.2,0.3l0.3,0.2l0.3,0.1l0.3,0.1l0.3,0.4l0.1,0.5v0.4l0.1,0.4l0.3,0.5l0.3,0.3l0.3,0.2l0.3,0l0.3-0.1
	l0.4-0.3l0.3-0.4l0.1-0.5l0.2-0.5l0.4-0.1l0.4,0l0.4,0.2l0.3,0.3l0.3,0.5l0.2,0.7l0,0.7l-0.2,0.5l-0.5,0.3l-0.1,0.7l0.2,1.6
	l-0.1,0.8l-0.3,0.4l-0.4,0.1l-0.6,0.1l-0.1,0.1v0.2l0.1,0.1l0.6,1.2l0.2,0.2l0.2-0.2l0.2-0.4l0.2-0.3l0.4,0l0.3,0.2l0.2,0.3l0.2,0.4
	l0,0.5l-0.2,0.4l-0.3,0.3l-0.2,0.3l-0.2,1.1l-0.1,0.5l0,0.4l0.2,0.3l0.1,0l0.5-0.1l0.2,0.1l0.3,0.4l0.2,0.2l0.3,0.1l0.7,0.1l0.3,0.1
	l0.3,0.3l0.5,0.8l0.4,0.3l0.7,0.1l0.6-0.1l0.6,0.1l0.6,0.5l0.1,0.2l0.2,0.6l0.1,0.2l0.2,0l0.2-0.1l0.2-0.1l0.2,0.1l0.1,0.2v0.7
	l0,0.3l0.1,0.2l0.2,0.4l0.1,0.2l0,0.6l-0.2,1.9l-0.1,0.3l-0.1,0.3l-0.1,0.3v0.4l0.1,0.3l0.3,0.6l0.1,0.3l-0.2,0.7l-0.5,0.1l-0.4,0
	l0.1,0.7l0.3,0.4l0.9,0.4l0,0.1l0.1,0.3l0.1,0.1l0.1-0.1l0.3-0.2h0.1l0.2,0.1l0.1,0.2l0.3,0.5l-0.2,0.3l0.9,0.8l0.3,0.4l0.2-0.2
	l0.3-0.1l0.3,0.1l0.3,0.2l-0.5,0.9l-0.5,0.5l-0.9,0.2l-2.4-0.2l-0.3,0.1l-0.4,0.2l-0.8,0.7l-0.4,0.1l-0.4-0.5l-0.1-0.2v-0.6l0-0.3
	l-0.1-0.3l-0.4-0.7l-1.1-1.1l-0.3-0.5v0.8l-0.2,0.4l-0.4,0.2h-0.6l-0.1,0.2l0.1,0.7l-0.2,0.5l-0.3,0.3l-0.3,0.1l-0.4,0l-0.3-0.2
	l-0.3-0.4l-0.3-0.7l-0.3-0.3l-0.3-0.1l-0.6-0.1l-0.3-0.1l-0.1-0.2l0-0.2l0-0.2l0.1-0.2l0.1-0.2l0.1-0.2l0-0.2l-0.1-0.2l-0.5-0.1
	l-0.4,0.2l-0.4,0.4l-0.9,1.4h-0.3l-0.4-0.6l-0.5-1.1l-0.3-0.1l-0.4,0.6l-0.1,0.4l0.1,0.6v0.3l-0.2,0.4l-0.1,0.1l-0.2-0.1l-0.3,0.1
	l-0.8,0.8l-0.5,0.3l-0.4-0.3v-0.3l0.1-0.3l0.2-0.3l0.1-0.3l0.1-0.4l0-2.6l-0.1-0.7l-0.3-0.4h-0.4l-1.8,1.1l-1.1,0.4l-1.5,1.1
	l-0.4,0.7l-0.1,0.8l0.2,1.1l0.4,1.4l0,0.5l-0.1,0.6l-0.2,0.4v0.4l0.4,0.5l1.2,1.2l0.1,0.7l-0.2,0.7l-0.5,0.8l-0.7,0.8l-0.2,0.5
	l0.1,0.7l0.4,1.3l-0.1,0.6l-0.5,0.2l-3.6,0.9l-0.4,0.2l-0.2,0.4v0.5l0.3,1.1l0.1,0.6l0,0.6l-0.1,0.4l-0.3,0.3l-0.4,0.2l-0.6,0.1
	l-0.2,0.1v0.2l0.1,0.3l0,0.3l-0.1,0.3l-0.5,0.3l-1.4,0.1l-0.3,0.6l0.2,0.6l-0.1,0.2l-0.6,0.2l-0.4,0.2l-0.2,0.2l-0.5,0.7l-0.2,0.3
	l0.2,0.2l0.3,0.2l0.3,0.3l0.1,0.4l0,0.4l0.1,0.4l0.3,0.4l-0.5,0.3l-0.1,0.1l-0.1,0.3v0.1l0.1,0.1l0.1,1l-0.1,0.3l-0.4,0.2l-1.3-0.1
	l-1.6-0.4l-1.5-0.1l-1.1,0.8l-0.2,0.3l-0.2,0.4l-0.1,0.2l0.3,0.3l0.5-0.1l0.6,0.3l0.4,0.6l-0.1,0.6l0.6,1.6l0.4,0.7l0.5,0.3l0.3,0.1
	l0.7,0.4l1.8,0.5l1.7,0.9l2.8,0.6l0.8-0.1l0.7,0l0.3-0.1l0.2-0.3l-0.6-0.3l-0.2-0.1l-0.1-0.2l-0.1-0.3l0.1-0.2l0.6-0.3l0-0.4l0-0.4
	l0.5-0.1l0.3,0.1l0.5,0.4l0.5,0.1l0.3,0.2l0.3,0.4l0.4,0.2l0.5-0.2l0.1-0.2l0.1-0.6l0.1-0.3l0.2-0.1l0.2-0.1l0.5,0l0.3-0.2l1.1-0.9
	l0.9-0.3l0.4-0.2l0.3-0.3l0.2-0.1l0.5,0l0.1-0.1l0.1-0.2l0.2-0.2l0.3-0.3l0.4-0.2l0.3,0l0.3,0.1h0.4l0.2-0.1l0.2-0.1l0.2-0.2
	l0.1-0.2l0.2-0.1l0.2,0.1l0.2,0.1l0.2,0.1l1.6,0.2l2.9,1.1l1,0.9l0.2,0.1l0.5,0.4l0.3,1l0.1,1.2l-0.3,0.8l0.1,0.2l0,0.2l-0.1,0.2
	l-0.1,0.2l0.3,0.1l0.4-0.1l0.3-0.2l0.4-0.4l0,0l0-0.1l0-0.2l0.1-0.3l0.2-0.7l0-0.2l0.2-0.4l0.1-0.3l0-0.3l-0.1-1.3l-0.1-0.6
	l-0.2-0.6l-0.3-0.3l0.4,0l0.2-0.4l0-0.6l-0.2-0.5l-0.3-0.4l-0.2,0.2l-0.1,0.5l-0.1,0.4l-0.1-0.5l-0.1-0.1l-0.2,0l-0.2-0.1v0.1
	l-0.1,0.1l-0.1,0l-0.1-0.1v-0.7l-0.3,0.1l-0.1,0.3l0,0.4l-0.1,0.3l-0.2,0l-0.2-0.2l-0.2-0.2l-0.3-0.7v-0.3l0.3-0.1l0.1-0.1l0.1-0.3
	l0.1-0.3l0.2-0.1l0.3-0.2l0.7-1.1l0.3-0.3l-0.5,0.6l-0.3,0.2l-0.4,0.1l-0.4,0l-0.3-0.1l-0.5-0.3l0.2-1.3l-0.1-1.4l0.1-1.2l0.7-0.6
	l-0.2-0.3l-0.1-0.2l-0.1-0.2l0-0.4l0.1-0.4l0.4-0.5l0.1-0.2l-0.1-0.1l-0.3-0.4l-0.1-0.2l0.1-0.2l0.1-0.2l0.1,0l0.1,0.3l0.1,0.1
	l0.4,0.4l0.1,0l0.1,0.1l0.1,0.2l0.2,0.3l0,0.2l-0.1,0.2l-0.1,0.5l0.1,1.4l-0.1,0.2l0.5,0.3l0.4,0.6l0.2,0.8l0,0.8l0.3-0.2l0.6-0.2
	l0.3-0.2l-0.1-0.2V399l0.1-0.1l0.1-0.2l0.4,0.2l0.4-0.2l0.3-0.3l0.4-0.2l0.1-0.1l-0.2-0.2l-0.3-0.3l-0.5-0.2l-0.3-0.2l-0.2-0.4
	l0.1-0.6l0.4-0.3l0.6-0.1h0.5l0.1-0.1l0.1-0.1l0.1-0.1l0.1-0.1l0.2,0.1l0,0.1l0,0.1l0.1,0.1l0.4,0.3l0.2,0.2l0.1,0.3l0.1-0.8
	l-0.2-0.2l-0.2-0.3l-0.1-0.4l0-0.5l0.2-0.4l0.2-0.1l0.1,0.2l-0.1,0.3v0.2l0.2,0.3l0.2,0.3l0.1-0.7l0.1-0.7l0.2-0.6l0.5-0.2l0.5,0.2
	l1,0.8l0.2-0.1l0.1-0.1l0.1,0.1l0.1,0.1l0.1,0.1l0.2,0l0-0.1v-0.2l0.1-0.2l0-0.2l0.1-0.8l0.1-0.3l0.2-0.3l0.2-0.2l0.2,0.1l0.1,1.7
	l-0.1,0.4l1.4-1.1l1.2-1.2l2.3-3.1l2.6-2.5l0.2-0.4l0.4-1.2l0.2-0.2l0.3-0.2l0.3-0.4l0.4-0.9l1.5-2.1l0.6-1.2l0.1-0.3v-0.3l-0.2-0.2
	l-0.5-0.3l-0.1-0.2l0.3-0.4l1.1,0.1l0.3-0.3l0.9-1.2l0.1-0.1l0.2-0.9l0.1-0.2l0.1-0.1l0.1-0.1l0.1-0.1l-0.1-0.2l-0.2-0.2h-0.1
	l-0.2-0.6l-0.3-0.8l-0.1-0.4l0.1-0.3l0.6-0.9l0.3-0.2h0.2l0.9,0.2l0.3-0.1l1.2-0.9l0.3-0.1l0.2,0.1l0.2,0l0.5-0.4l0.2-0.1l0.5-0.1
	l0.9-0.3l1.1-0.2l1.1-0.3h0.6l1.4,0.4l0.4,0.3l0.2-0.2l0.3,0.2l0.6,0.1l0.3,0.2l0.3-0.2l0.9-0.5l0.4-0.1l0.3-0.3l0.7-1.1l0.3-0.3
	l0-0.1l0.4-0.6l0.2-0.4l-0.1-0.2l-0.7-0.5l-0.2-0.1l-0.1-0.2l-0.1-0.4l0-0.2l-0.2-0.8l0.3,0.1l0.2,0.4l0.3,0.8l0.3,0.2l0.3,0.2
	l0.2-0.1l0.1-0.1l0-0.1l0.4-0.6l0.1-0.2l0.2-0.1l0.4-0.2l0.2-0.1l0.2-0.4l0.1-0.4l0.2-0.2l0.3,0.4l-1,1.4l-0.3,0.2v0.3l-0.3,0.7
	l-1.1,1.9l-0.2,0.5l0.1,0.4l0.2,0.1l0.2,0l0.4,0l0.2,0.1l0.3,0.3l0.2,0.1l0.5-0.1l0.2-0.4l0.2-0.4l0.4-0.2l1.2-0.1l2,0.8l0.9,0.1
	l0.9-0.2l0.2-0.1l0.5-0.3l0.2-0.2l0.2-0.4l0-0.2l-0.1-0.2c0,0-0.1-0.5-0.1-0.5"/>
<defs>
	<filter id="Adobe_OpacityMaskFilter" filterUnits="userSpaceOnUse" x="265.2" y="393.8" width="8.4" height="6.8">
		
			<feColorMatrix  type="matrix" values="-1 0 0 0 1  0 -1 0 0 1  0 0 -1 0 1  0 0 0 1 0" color-interpolation-filters="sRGB" result="source"/>
		<feFlood  style="flood-color:white;flood-opacity:1" result="back"/>
		<feBlend  in="source" in2="back" mode="normal"/>
	</filter>
</defs>
<mask maskUnits="userSpaceOnUse" x="265.2" y="393.8" width="8.4" height="6.8" id="SVGID_1_">
	<g class="st2">
		<rect x="340.7" y="280.7" class="st0" width="51" height="193"/>
		<rect x="281.7" y="243.3" class="st0" width="53.7" height="213"/>
		<rect x="219.7" y="243.3" class="st0" width="54" height="207.7"/>
	</g>
</mask>
<polygon class="st3" points="269.1,397.6 268.8,397.9 268.2,398.6 267.8,398.8 267.5,398.9 267.2,399 267,399.1 266.9,399.4 
	266.7,399.7 266.3,400 265.2,400.6 266.8,399.9 268.9,398.4 273.7,393.8 272.3,394.6 "/>
<defs>
	<filter id="Adobe_OpacityMaskFilter_1_" filterUnits="userSpaceOnUse" x="107.9" y="184.5" width="373.1" height="251.9">
		
			<feColorMatrix  type="matrix" values="-1 0 0 0 1  0 -1 0 0 1  0 0 -1 0 1  0 0 0 1 0" color-interpolation-filters="sRGB" result="source"/>
		<feFlood  style="flood-color:white;flood-opacity:1" result="back"/>
		<feBlend  in="source" in2="back" mode="normal"/>
	</filter>
</defs>
<mask maskUnits="userSpaceOnUse" x="107.9" y="184.5" width="373.1" height="251.9" id="SVGID_2_">
	<g class="st4">
		<rect x="340.7" y="280.7" class="st0" width="51" height="193"/>
		<rect x="281.7" y="243.3" class="st0" width="53.7" height="213"/>
		<rect x="219.7" y="243.3" class="st0" width="54" height="207.7"/>
	</g>
</mask>
<path class="st5" d="M312,368.2l0.1,0.3l0.3,0.5l0.3,0.3l0.3,0.2l1.3,0.3l0.3,0.2l0.3,1.1l0.3,0.3l0.5-0.6l0.2,0l0.4-0.2l0.2,0
	l0.2-0.1l0.3-0.4l0.2-0.1l0.1,0.1l0.3,0.5l1.4,0.8l1.5-0.2l2.8-1.6l0.5,0.1l0.6-0.3l0.5-0.4l0.5-0.2l-0.2,0.5l-0.3,0.3l-0.3,0.2
	l-0.3,0.3l-0.4,0.2l-1,0.1l-0.4,0.3l-1.5,1.2l-0.6,0.8l0.4,0.6l-0.6,0.6l-0.8,0.3l-0.9,0.1l-0.9-0.2l-1.1-0.7l-2.3-0.5h-0.4
	l-1.2,0.2l-1.8-0.4h-1.8l-0.3-0.1l-1.2-0.7l-0.7-0.2l-3.6,0.3l-0.3-0.2l-0.5-0.6l-0.7-0.5l0.3,0.7l2.4,2.5l0.3,0.1l0.2,0.2l0.5,1.3
	l0-0.9l0-0.3l0.1-0.2l0.1-0.2l0.3-0.3l0.3-0.2l0.5,0l0.5,0.1l2.9,1.2l0.9,0.2l0.8-0.1l0.3,0.1l0.9,1.3l0.2,0.4l-0.2,0.1h-0.3
	l-0.3,0.1l-1.1,1l-0.2,0.1l-1.6,0.3l-1.1-0.3l-0.4,0.1l-0.3,0.2l-0.4,0.3l-0.3,0.4l0.1,0.5l0.3,0.3l0.3,0.2l0.4,0.1l1.3,0.1l0.2-0.1
	l-0.1-0.3l-0.1-0.4l0.1-0.4l1.7,1.3l1,0.6l0.6-0.3l0.6,0.5l0.8,1.1l0.3,0.2l0.3,0.1l0.9,0.3l0.5,0.1l0.5-0.1l0.6-0.3l-0.1,0.3
	l-0.1,0.2l-0.4,0.4l0.1,0.2l0.1,0.4l0.1,0.2l0,0.1l0.1,0.4l0,0.1l0.1,0.1l0.3,0l0.5,0.3l4.2,1.2l0.8-0.1l0.2-0.1l0.3-0.4l0.2-0.2
	l0.2-0.1l2.6-0.5l0.8-0.4l0.3-0.1l0.5,0.1l1.1,0.4l0.2,0l0.5,0l0.2,0l0.2,0.1l0.2,0h0.3l2.2-0.4l0.3-0.4l-0.2-0.9l1.2,0.6l0.4,0.3
	l0.2,0.1h0.2l0.3-0.1l0.2,0l0.7-0.3l0.4-0.8l0.3-0.8l0.5-0.5l-0.2,2.1l-0.1,0.4l-0.2,0.4l1.6-0.2l0.5,0.2l0.1,0.3l-0.2,0.4l-0.3,0.3
	l0.1,0h0.1l0.1,0l0.1,0.2l0.4-0.6l0.5,0.1l0.5,0.5l0.6,0.9l0.2,0.2h1.3l0.4,0.2h0.2l-0.4-0.6l0.2-0.4l0.5-0.2l0.5,0v-0.2l-0.5-0.4
	l0-0.4l0.4-0.4l0.4-0.4l0.5-0.2l0.3,0.3l0.6,1.2l0.1,0.5l-0.2,0.3l-0.2,0.3l0,0.3l0.3,1l0,0.2l-0.2,0.3l-0.1,0.3l0,0.2l0.2,0.1
	l-0.1,0.1l-0.2,0.3l-0.4,0.5l0.3,0.2l0.2-0.1l0.2-0.2l0.2-0.1l0.5-0.1l1.2,0.3l0.4,0.2l0.4,0.3l-0.4,0.2l-0.7,0.2l-0.3,0.2l-0.3-0.1
	l-0.1,0.6l0.1,0.7l0,0.3l-0.4,0.1l-0.2,0l-0.1-0.2l-0.1-0.2l-0.2-0.2l-0.2-0.1l-0.2-0.1l-0.2,0l-0.2,0.1l-0.4,0.3l-0.5,0.6l-0.5,0.2
	l-0.2,0l-0.3-0.1l-0.4-0.3l-0.2-0.1l-0.3,0.1l-0.9,0.6l-0.3,0.1l-0.6,0.7l-0.1,0.2l-0.8,0.3l-1.5,0.9l-0.7,0.1l-0.7-0.4l-0.3-0.4
	l-0.2-0.1l-0.2,0.2l0,0.3l0.2,0.2l0.2,0.1l0.1,0.1l-0.1,0.4l-0.3,0.2l-4.7,2.2l-1.4,1l-0.6,0.7l-0.2,0.2l-0.1,0.2l-0.1,0.3l0,0.2
	l0.1,0.3l0,0.2l-0.3,0.1l-0.2,0l-0.4-0.2l-0.2,0l-0.3,0.1l-0.2,0.2l-0.1,0.2l-0.2,0.2l-0.3,0.2l-0.3,0.2l-0.4,0.1l-0.5,0.1l-0.4,0.1
	l-2.4,1.9l-0.6,0.7l-0.3,0.8l0.1,0.4l0.6,1.6l0.5,0.1l0.7,0.4l0.4,0.2h1.5l0.3-0.2l0.7-0.8l0.3-0.2l0.4-0.1l3.1,0.3l0.9,0.3l0.8,0.5
	l1.3,1.2l0.2,0.1l0.4,0.2l0.2,0.1l0.2,0.4l0.2,0.3l0.5,0.3l0.7,0.9l0.3,0.3l0.9,0.3l0.4,0.2l0.2,0.4l0.2,0.3l0.5-0.1l0.7-0.4
	l0.8-0.3l0.9-0.1l0.4,0.2l1.1,1.1l1.4,0.9l0.5,0.7l0.3,1.2l0.1,0.8l0.1,0.3l0.4,0.7l0.1,0.2l0.1,0.5l0.2,1.2v0.7l-0.1,0.6l-0.1,0.5
	l-0.2,0.4l-0.8,0.3l-0.3,0.4l-0.2,0.5l-0.1,0.6l-0.1,0.2l-0.1,0.1l-0.2,0.1l0.2,0.4l0.1,0.4l0.1,0.8l0.2,0.6l0,0.3l-0.1,0.5
	l-0.2,0.3l-0.3,0.3l-0.2,0.4l0,0.4l0.2,0.2l0.7,0.1l0.3,0.1l-0.4,0.2l-1.1,0l-0.3,0.1l-0.2,0.1l-0.2,0l-0.4,0l-0.2,0.1l-0.5,0.3
	l-0.2,0.1l-0.6,0.1l-0.1-0.1l0,0.3l0.2,0.3l2.2,1.6l0.3,0.3l0.4,0.3l0.4,0l0.4-0.1l0.4,0l0.2,0.2l0.6,0.8l0.1,0.3l0.1,0.6l0.3,0.3
	l1.6,0.7l0.4,0.1l1.4,0l0.2,0l0.4-0.1h0.3l1.3,0.5l0.5,0.1l0.4-0.1l2.2-1.1l0.5-0.1l0.3-0.1l0.7-0.5l0.2-0.2l0.3-0.5l0.2-0.4
	l0.3-0.3l1-0.2l0.3-0.2l0.4-0.7l0.1-0.1v-0.2l0.1-0.1l0-0.1l0.2,0h0.3l0.5,0.1l0.2-0.1l0.2-0.4l0.8-2.1l0.7-1.2l0.2-0.3l0.1-0.2
	l0.8-1.2h0.1l0,0v0.1l0,0.1l0.5-0.6l0.7-0.3l1.7-0.4l0.8-0.3l1.5-1l0.8-0.3l1.4,0.3l0.3-0.2l0.3-0.2l0.7,0.2l0.4-0.1l0.2-0.1
	l0.1-0.2l0.2-0.2l0.2-0.1l0.2,0l0.7,0l0.4,0.2l0.3,0.4l0.2,0.4l0.2,0.3l0.9,0.1l0.6-0.9l0.4-1.3l0.5-0.9l0.4-0.2l0.9-0.2l0.4-0.3
	l0.5-1l0.4-0.3l0.5,0.3l0.1-0.1l0.2-0.2l0.1-0.1l1,0.8l-0.1-0.9l0-0.4l0.2-0.3l0.3-0.1l0.7,0.1l0.3-0.1v-0.2l-0.6-0.3l-0.1-0.1
	l-0.1-0.3l0.1-0.2l0.1-0.2l0.1-0.3l0.2-0.2l1.1-0.9l0.8-0.4l0.9-0.2h0.9l0.9,0.2l1.5,0.6l1.4,0.9l0.2,0.2l0.6,0.8l0.1,0.3l0.2,0.7
	l0.4,0.2l1.4-0.3l1.6,0.1l0.3-0.3l0.4-0.7l0.5-0.5l0.7,0.3v-0.2l1.2,0.7l1.8,0.4l0.4-0.1l0.1-0.2l0.1-0.5l0.1-0.2l0.2-0.1l0.2-0.1
	l1.8-0.1l1.5-0.6l0.3-0.3l0.1-0.4l-0.3-0.4l-0.6-0.6l-0.1-0.6V413l0.2-1.7l0.2-0.6l0.2-0.6l0.3-0.4l0.2-0.1l0.5,0l0.2-0.1l0.1-0.3
	l-0.1-0.1l-0.1-0.1l-0.1-0.2l0.1-0.6l0.3-0.3l0.4-0.1l0.5,0.1l0.6,0.3l0.2,0.1h0.3l0.7-0.2l0.2-0.3L408,407l-0.4-1l-0.3-0.4
	l-0.3-0.2l-0.3,0.1l-0.4,0.4L406,406l-0.3-0.3l-0.5-0.7l-0.4-0.1l-1.2,0.3l-0.4-0.1l-0.6-0.4l-0.4-0.1l-0.2,0.1l-0.2,0.2l-0.2,0.2
	h-0.3l0.2-0.5l-0.2-0.4l-0.3-0.1l-0.3,0.3l-0.3,0.3l-2.4,0l-0.4,0.2l-0.4,0.4l-0.6,0.4l-0.1,0.1l-0.3,0.9l-0.6,0.8l-0.8,0.2
	l-0.8-0.3l-1.6-0.9L392,406l-0.2-0.4l0.1-0.5l0.2-0.5l-0.1-0.3l-0.5-0.1l-0.3,0.2l-0.3,0.4l-0.2,0.6l-0.1,0.6l-0.1,0.1l-0.3,0.4
	l-0.1,0.1l-0.3,0.1l-0.1,0.2l0,0.3l-0.1,0.3l-0.6,0.6l-0.4,0.3l-3.7,1l-0.8-0.1l-3.1-2.2l-6-8.9l-1.8-3.6l-1.1-3l-0.2-0.4l-0.2-0.3
	l-0.2-0.4L371,387l-0.2-0.5l-0.1-0.4l-0.1-1.9l-0.1-0.5l0-0.2l0-0.3l0.1-0.3l0.4-0.5l0.1-0.1l0.9-0.4l0.1-0.3l0-0.3l0.2-0.3l0.2-0.1
	l0.1,0.1l0,0.2l0.1,0.2l0.3,0.1h0.2l2-0.5l0.9-0.6l0.7-0.8l1.2-1.9l0.7-0.7l0.2-0.3l0.1-0.5l-0.1-0.3l-0.1-0.2l-0.1-0.4l-0.2-0.4
	l-0.4-0.6l-0.2-0.6l0.4-0.6l0.1,0.6l0.2,0.6l0.3,0.4l0.3,0.2l0.3,0.3l0.2,0.1l0.2,0.1l0.3,0l0.2,0.1l-0.4,1.1l-0.1,0.8l0.2,0.7
	l0.5,0.4l0.4,0l0.4-0.3l0.4-0.4l-0.1,0.8l-0.3,0.5l-0.8,0.8l-0.6,1.1l-0.2,0.5l-0.5,0.6l-0.6,1.2l-1.1,0.6l-2.2,0.7l0.1,0.3l0.1,0.1
	l-0.7,0.5l-0.7,0.8L374,386l0.4,0.1l0.8-0.4l0.5-0.4l0.7-0.2l0.5-0.4l0.8-0.3l0.5-0.5l0.5-0.7l1.1-2.3l0.4-0.5l2-3.3l0.3-0.3
	l0.7-0.5l0.3-0.3l0.6-0.9l0.3-0.4l0.4-0.3l2.4-1.3l0.7-0.6l1.7-2l0.6-0.5l1.1-0.7l1.5-0.9l0.5,0l2.8-0.6l1.5,0.2l0.8-0.2h0.4
	l0.4,0.2l0.1,0.1l0.1,0.1l0.2,0.4l0.1,0.1l0.2,0.2v0.2l0,0.2l-0.1,0.1l0.1,0.3l0-0.1l0-0.2l0.2-0.1l0.2-0.1l0.1,0.1v0.4h0.2l0.1-0.9
	l0.4-0.7l1.4-1.5l0.6-0.5l0.7-0.3l1-0.2l0.9-0.5h1.4l0.2-0.1l0.2-0.2l0.2-0.2l0.3-0.1l0.6,0.2l0.4,0l0.3-0.2l0.3,0.2l0.7,0.2
	l0.3,0.2l0.8,0.9l0.2,0.1v0.6l-0.3,1.1l-0.4,0.8l-0.4-0.2h-0.2v0.2l0.5,0.2l0.5-0.5l0.4-0.8l0.2-0.8l0.2-0.7l0.4-0.7l0.3-0.7
	l-0.2-0.7l0.7-0.1l1.1-1.1l0.7-0.3l0.2-0.1l0.7-0.6l0.2-0.1l0.4-0.1l2.4-7.9l1-0.8l0.4-0.1l0.7,0.1l0.7,0.4l0.5,0.6l-0.1,0.8
	l0.5-0.2l0.3-0.5l0.5-1.1l2.2-3.1l1.3-1.4l0.7-0.3l2.7,0.5l0.9,0l2.2-0.8l1.8,0.3l0.2-0.1l0.5,0.1l0.8,0.3l0.2-0.1l0.5-0.3l0.1-0.1
	l0.1-0.1l0.7,0.6l0.5,0.2v0.5l-0.5,1l0.7-0.3l1.1-1.6l0.4-0.4l-0.3-0.8l-0.1-1l0.1-0.9l0.4-0.7l0.4-0.3l0.5-0.2l0.4-0.3l0.3-0.4
	l0.1-0.6l-0.2-0.3l-0.3-0.2l-0.4,0l-0.8,0.1l-0.4-0.1l-0.3-0.3l0.1-0.5l0.3-0.6l0.6-0.9l0.5-0.9l0.1-0.9l-0.1-2.2l0.3-1.1l0.4-1.1
	l0.5-0.9l0.7-0.5l4.3-0.6l0.5-0.2l0.4-0.3l0.8-0.9l0.4-0.3l0.3-0.1l0.7,0.3l0.4-0.1l0.2-0.5l0.2-1.3l0.4-1.4l0.5-1.2l0.7-0.9l1-0.4
	l3.4,0.1l1.1,0.8l0.4,0.1l0.4,0l0.8-0.2l3.1-0.1l0.4,0.1l0.7,0.5l0.4,0.2l0.5,0l0.9-0.3l0.5,0.2l0.6,0.1l1.3-0.3l0.6,0.1l2.1,0.6
	l0.7-0.1l0.5-0.5l0.3-0.8l0.2-0.9l0-0.2l-0.1-0.4v-0.2l0.1-0.3l0.2-0.5l0.1-0.2l0.1-0.5l0-0.3l-0.3-0.7l-0.2-0.3l-0.2-0.2l-0.1-0.2
	l0.2-0.3l0.2-0.2l1.1-0.2l0.1,0l0.1-0.1l0-0.3l-0.3-1l0.1-0.7l0.3-0.6l1-2l0.4-0.5l1-0.8l0.4-0.4l0.3-0.6l0.1-0.6l-0.3-0.5L477,311
	l-1.1,0.4l-0.4,0.1l-1.4-0.9l1.4-1.2l0.4-0.5l0.5-0.5l-0.2-0.3l-0.2-0.4l-0.2-0.8l-0.6-1.4l-0.2-0.2l-0.2-0.3l-0.1-0.5l0.1,0l0.2,0
	l0.2-0.1l0.1-0.3l0-0.1l-0.1-0.1l-0.1-0.2l0-0.2l-0.2-0.8l-0.4-0.6l-0.5-0.3l-2.5-0.3l-0.4,0.2l-0.8,0.1l0.2-0.8l1.3-4.3l0.2-0.3
	l0.5-0.2l0.2-0.3l0.1-0.4l0.2-0.3l0.4-0.5l0.4-0.2l0.5,0l2.3,0.9l0.8-0.1l0.9-0.7l0.4-0.5l0.3-0.6l-0.1-0.6l-0.4-0.5l-0.5-0.1
	l-0.4,0.4l-0.4,0.5l-0.4,0.2l-0.3-0.1l-0.4-0.5l-0.2-0.2l-0.2-0.1l-0.7,0.1l-1.6-0.4l-0.5-0.2l-0.2-0.3l-0.2-0.4l-0.3-0.6l-0.4-0.4
	l-0.4-0.3l-0.3-0.4l0.2-1.6l0.4-0.3l1,0.1l1.7-0.6h0.6l0.6,0.1l0.3,0l0.2-0.2l0.1-0.3l-0.1-1l0.1-0.4l0.4-0.8l0.6-0.6l1.2-0.8
	l0.4-0.4l0.7-1.1l0.4-0.3l0.5-0.3l0.2-0.3l0-1.2l0.3-1.1l0.1-0.6l-0.2-0.5l-1-1.2l-0.8-1.3l-0.4-0.9l-0.1-1l0.4-1.1l0.4-0.3l0.8-0.5
	l0.3-0.4l0.1-0.7l-0.3-0.3l-2-0.6h-0.4l-0.5,0.2l-1.2,1.3l-0.5,0.3l-0.6,0.2l-0.6,0.1l-0.6,0l-0.4-0.2l-1.1-1.1l-0.8-0.4l-0.7-0.2
	l-0.6-0.4l-0.5-1.1l-0.3-1.4l-0.2-0.7l-0.3-0.3l-1.2-0.1l-0.4-0.2l-0.8-0.5l-0.8,0.2l-0.8,0.4l-0.8,0.2L463,265l-0.6-0.4l-0.5-0.7
	l-1.1-3l-0.5-0.5l-0.8,0.3l-0.4,0.4l-0.7,1l-0.4,0.3l-0.3,0.1l-2,0.1l-0.5-0.6l-0.5-0.8l-0.7-0.7l-2.2-0.6l-1.2-0.9l-0.1-0.1
	l-0.1-0.3l-0.1-0.5l-0.2-0.6v-0.1l-0.1,0.1l-0.5,0.2l-0.2,0.1l-0.2,0.1l-1-0.2l-1.5,0.3l-0.8-0.3l-0.5-0.3l-0.4-0.2l-0.9-0.1
	l-0.4-0.2l-0.2-0.4l-0.6-1.9l-0.3-0.4l-0.4-0.1l-0.6,0.1l-1.3-0.1l-0.3,0.1l-0.2,1l0.2,1.5l-0.1,1.4l-1,0.7l-0.2-0.1l-0.4-0.3
	l-0.2-0.1l-0.3,0.1l-1.4,0.9l-0.1-0.2v-0.5l-0.3,6.4l0-0.1l-0.7-1.2l-0.6-0.8l-0.7-0.6l-0.8-0.5l-1.6-0.8l-0.7-0.5l-2-3.1l-0.7-0.7
	l-0.2-0.2l0-0.3l0.1-0.3l0.2-0.8l-0.1-1.4l-0.7-0.7l-1.8-0.9l-0.3-0.9l-0.3-1.1l-0.3-0.8l-0.4-0.2l-2.1,0.3l-0.6,0.3l-1.2,1.3
	l-0.6,0.5l-3-6.1l-1.5-0.2l-1.4,0.1l-1.4,0.5l-3.4,2.1l-0.3,0.3l-0.2,0.3l-0.3,0.7l-0.2,0.3l-0.4,0.3l-0.5,0.1l-0.5-0.1l-0.4-0.2
	l-0.3-0.3L406,249l0.1-0.3l0-0.7l0.1-0.1l-0.1-0.1l-0.3-0.2l-0.2-0.1l-0.6-0.2l-0.6-0.4l-0.5-0.1l-0.4-0.3l-0.2-0.1H403l-0.2,0.1
	l-0.4,0.4l-0.5,0.3l-0.5,0.2l-0.5,0l-0.5-0.2l-2.1-3.3l-0.6-0.3l-0.2-0.6l-0.6-0.3l-3.6,2.7l-2,0.2l-0.4,0.1l-0.3,0.2l-0.4,0.6
	l-0.2,0.2l-0.2,0.1h-0.4l-0.2,0.1l-0.3,0.4l-0.2,0.4l-0.3,0.3l-0.5,0.2l-0.4,0l-0.4-0.1l-0.4-0.2l-0.4-0.3l-0.4-0.5l-0.1-0.5l0-0.6
	l-0.2-0.8l-0.3-0.6l-0.4-0.3l-0.4-0.2l-0.4-0.1l-0.7-0.3l-0.4,3.2l-1-4l0-0.4l0.3-0.4l1.6-0.7l-0.5-0.6l0-0.7l0.1-0.8l-0.2-0.9
	l-0.2-0.3l-0.2-0.2l-0.5-0.3l-0.3-0.3l0-0.3l0.1-0.4l-0.1-0.5l-0.2-0.4l-0.4-0.6l-0.2-0.4l0-0.5l0.1-0.4l0-0.4l-0.3-0.4l-0.3-0.2
	l-0.5-0.1l-0.2-0.2l-0.1-0.3v-0.9l-0.1-0.4l1.1-0.2l0.3-0.3l0.2-0.6l-0.2-0.4l-0.4-0.2l-0.4-0.1l-0.7-0.1l-1.4,0.3l-0.7-0.1
	l-0.6-0.6l-0.4-1.1l-0.5-3.1l-0.2-0.5l-0.3-0.3l-0.4-0.2l-0.4,0.1l-0.4,0.2l-0.4,0.1l-0.4-0.3l-0.4-0.2l-0.3,0l-1,0.6l-1.7,0.7
	l-1.4,0.3l-1.5-0.1l-0.4-0.1l-0.3-0.3l-0.2-0.5l-0.1-0.5l-0.1-0.4l-0.3-0.3l-0.6-0.1l-1.3,0.2l-0.7-0.3l-1.5-0.5l-0.8-0.1l-0.7,0.2
	l-0.8,0.7l-0.4,0.2L359,223l-1.5-0.7l1.2-0.8l0.8-0.9l0.5-1.1l-0.2-1.1l-0.4,0.2h-0.3l-0.4-0.1l-0.3-0.2l-0.3-0.2l-0.4-0.4l-0.2-0.3
	l-0.1-0.3l0.1-0.2l0.5-0.1l0.1-0.3l0.1-0.3l-0.1-0.3l-0.1-0.3l0-0.3l0.1-0.3l0.2-0.6l0.1-0.3l-0.1-0.7l-0.2-0.6l-0.3-0.5l-0.9-1
	l-0.2-0.3l-0.1-0.3l-0.1-0.7l-0.1-0.2l-0.3-0.2l-0.7-0.2l-0.2-0.3l0.2-0.8l0.8-0.5l3.5-0.8l1.2,0l0.4-0.1l0.8-0.9l0-1.4l-0.6-1.3
	l-0.8-0.8l-0.4-0.3l-0.7-0.8l-0.4-0.3h-0.2l-0.4,0.2l-0.2-0.1V201l-0.1-0.5l-0.1-0.2l-0.1-0.1l-0.3-0.2l-0.1-0.1l-0.8-1l-0.4-0.3h-1
	v-0.3l0.2-0.5l-0.1-0.6l-0.4-0.7l-0.3-0.6l-0.1-0.7l-0.1-1.1l-0.1-0.6v-0.2l0.4-0.8v-0.4l-0.1-0.3l-0.1-0.3l-0.2-0.4l-0.3-0.6
	l-0.3-0.4l-1.3-0.9l-0.3-0.4l-0.5-1.2l-0.4-0.6l-0.9-0.6l-0.4-0.4l-0.3-0.6l-0.2-0.5l-0.2-0.3l-0.5-0.2l-0.9,0l-0.9,0.2l-1.8,0.9
	l-1.4,1.4l-0.4,0.1l-0.4-0.6l0.1-1.3l-0.4-0.6l-0.3,0.2l-0.3,0.3l-0.3,0.2l-0.4,0l-0.3-0.2l-0.6-0.4l-0.4-0.1h-1.3l-2-0.4l-0.3,0.1
	l-0.3,0.2l-0.5,0.7l-0.3,0.3l-0.4,0.2l-0.2,0.1l-0.2,0.5l-0.2,0.2l-0.2,0.1l-0.3-0.2l-0.2,0l-0.4,0.2l-2.1,1.9l-0.4,0.2l-0.4-0.1
	l-0.6-0.5l-0.3-0.2h-0.6l-1.2,0.3h-0.6l-4.1-2.2l-1,0.3l-1.8-0.7l-0.8,0.2l-0.3,1.2l0.1,0.4l0.4,0.7l0.1,0.3l-0.1,0.4l-0.2,0.2
	l-0.3,0.2l-0.2,0.2l-0.2,0.6l-0.3,2.1l-0.6,1.3l-0.9,0.7l-2.9,1.4l-0.4,0l-1.3-0.3l-0.8,0.1l-1.1,0.6l-0.3,0.1l-0.4-0.2l-0.1-0.5
	v-0.6l-0.1-0.6l-0.5-0.5l-0.7-0.1l-1.3,0.1l-2.4,0.1l-3.6-0.7h-1.9l-1.6,0.7l-0.4,0.5l-0.3,0.7l-0.3,0.6l-0.5,0.2l-0.5-0.2l-1-0.8
	l-0.5-0.3l-0.8-0.1l-2.8,0.2l-0.5,0.2l-0.3,0.4l0.1,0.6l-0.1,0.2l-0.1,0.2l-0.1,0.2l-0.1,0.2l0.6,0.1l0.2,0.5l-0.2,0.4l-0.5,0
	l-0.1-0.2l-0.1-0.1l-0.1,0.1l-0.2,0.1l-0.2,0.2l-0.1,0.2v0.3l-0.2,0.3l-0.2,0.3l-0.3,0.2l-0.3,0.2l-0.6,0.2v0.1l0.1,0.2l0.1,0.1v0.2
	l-0.3,0.4l-0.2,0.2l-0.2,0.1l-0.6-0.1l-0.2,0.1l-0.1,0.2v0.3l-0.1,0.3l-0.4,0.2l-0.1,0.2l-0.1,0.2l-0.1,0.1l-0.1,0.1l-0.4,0.6
	l-0.1,0.2l-0.1,0.1v0.1l0.2,0.3l0,0.5l-0.4,0.4l-0.5,0.3l-0.3,0.3l0.4,0.2l0.2,0v0.3l-0.2,0.3l-0.1,0.4l0,0.4l-0.1,0.3l-0.2,0.1
	l-0.7,0l-0.3,0.1l0.1,0.4l-0.2,0.7l0.1,0.5l-0.2,0.1l-0.2,0.3l-0.1,0.1l0.1,0.1l0.1,0.3l-0.3,0.1l-0.6,0.6v0.2l0.4,0.3l0.2,0.1v0.2
	l-0.2,0.1l-0.1,0.1l-0.1,0.1l-0.1,0.1v0.2l0.2,0.3l0.7,0.2l0.3,0.2l-0.2,0.4l-0.1,0.2l-0.2,0.2l0.3,0.2l0.2,0.2l0.1,0.3l-0.1,0.3
	l0.1,0.4l0.2,0.3l0.2,0.1l0.2,0.1v0.2l-0.3-0.1l-0.2,0.1l-0.2,0.2l-0.1,0.4l0.1,0.4l0.2,0.1h0.2l0.3,0.2l0.1,0.2l0.2,0.9l0.1,0.2
	l0.2,0.2l0,0.2l-0.3,0.1l0.1,0.9l-0.6,0.6l-0.6,0.5l-0.1,0.5l-0.4,0.7l-0.1,0.1l0,0.8l-0.1,0.2l-0.2,0.1l-0.2-0.3l-0.2-0.3l-0.3-0.2
	l-0.3-0.1l-0.3,0l-0.3-0.1l-0.5-0.7l-0.3-0.3l-0.3-0.1h-0.6l-0.3-0.1l-0.3-0.3l-0.6-0.8l-0.2-0.3l0.1,0l0.2-0.7l0-0.3v-0.3l0-0.3
	l-0.1-0.2l-0.2-0.2l-0.3-0.3l-1-0.5l-0.3-0.3l-0.8-1.1l-0.6-0.4l-0.6-0.2l-2.9,0.1l-0.5,0.2l-1.2,0.7h-0.3l-0.3-0.2l-0.2,0l-0.3,0.2
	l-0.3,0.6l-0.2,0.2l-0.4,0.1l-1.9-0.3l-0.3-0.4l-0.2-0.5l-0.3-0.6l-0.4-0.3l-0.4-0.1l-0.5,0.1l-0.4,0.2l-0.4,0.4l-0.2,0.4l-0.3,0.4
	l-0.5,0.2l-0.5,0.1l-0.3,0.2l-0.2,0.4l-0.3,0.8l-0.3,0.6h-0.4l-0.9-0.4l-0.5,0.2l-0.8,0.7l-0.4,0.2l-0.5-0.3l-0.3-0.6l-0.2-0.7
	l-0.2-0.7l-0.4-0.5l-0.3-0.3l-0.1-0.4l0.2-0.9l-0.1-0.9l-0.2-0.6l-0.7-1.1l-0.4-1.2l-0.3-0.4l-0.5-0.3l-0.8-0.2l-0.4,0l-0.4,0.2
	l-0.4,0.4l-0.5,1.1l-0.4,0.4l-0.5,0.2h-1.3l-0.6,0.1l-0.6,0.4l-0.7,0.5l-0.6,0.7l-0.4,0.9L245,215l0.1,1.3l-0.1,0.5l-0.4,0.4
	l-0.2-0.3l-0.2-0.6l-0.2-0.4l-0.3,0l-0.3,0.2l-0.3,0.1l-0.3-0.2l-0.2-0.3l-0.1-0.5l-0.3-1.9l-0.1-0.7l-0.2-0.4l-0.5-0.2l-1.8-0.4
	H239l-0.5,0.2l-1,0.7l-0.5,0.5l-0.3,0.2l-0.3-0.1l-0.1-0.3l-0.2-0.9l-0.1-0.3l-0.3-0.3l-0.6-0.4l-0.3-0.3l-0.2-0.4l0-0.3v-0.3
	l-0.1-0.3l-0.3-0.3l-0.4,0l-0.5,0.2l-0.4,0.4l-0.4,0.6l-0.7,1.3l-0.5,0.4l-0.4,0.2h-2l-0.4-0.1l-0.4-0.2l-1.2-1.4l-0.4-0.2l-0.5,0.1
	l-0.4,0.4l-0.3,0.6l-0.1,0.7v0.4l0,0.4l0,0.4l-0.1,0.4l-0.1,0.2l-1,1.3l-0.2,0.2l-0.3,0.1l-0.3-0.1l-0.3-0.3l-0.3-0.3l-0.1-0.3
	l0.7-1.7l0.2-0.8l-0.3-0.7l-0.3-0.2l-1.2,0l-2.2-0.9l-0.7,0l-0.4,0.2l-0.6,0.6l-0.4,0.2l-0.4,0l-1.2-0.2l-0.8,0.3l-0.4,0.1l-0.3-0.3
	l0.1-0.6l0.3-0.7l0.1-0.6l-0.6-0.2l-0.5,0.1l-0.4-0.1l-0.3-0.3l-0.2-0.7v-0.9l0.1-0.7l-0.1-0.5l-0.5-0.3l-0.9-0.2l-1.8-0.1l-2.1,0.7
	l-1.4-0.2l-3.9-1.8l-4.6-0.2l-0.3-0.2l-0.3-0.4l-0.1-0.3l0.1-0.3v-0.2l-0.2-0.1l-4.8-0.2l-0.6-0.3l-1.3-1.2l-0.6-0.1l-1.4,0.1
	l-4.4-0.8l-1.7,0.3l-6.9-0.1l-3.5-0.9l-0.9,0l-0.9,0.3l-1.8,1l-5.8,0.9l-0.4,0l-1.3-0.3l-5.2,0.4l-0.4,0.2l-0.4,0.5l-0.8,1.1
	l-0.3,0.7l-0.5,2.2l-0.6,0.8l-2.3,1.6l-3.1,2.8l-0.8,0.1l-0.6-0.6l-0.6-0.7l-0.8-0.3l-0.5-0.1l-1.5-0.4H141l-2,0.5l-0.3,0.1
	l-0.2,0.2l-0.3,0.4l0,0.3l0.1,0.3l0.6,1.6l0.1,0.3l-0.1,0.5l-0.2,0.1l-0.2-0.2l0,0.2l0.1,0.5l0.5,0.2l0.4,0.1l0.3,0.2l-0.3,0.7
	l0,0.2l0.8,1.3l0.2,0.4l-0.2,0.1l-0.2,0.2l0,0.3l0.1,0.4l-0.4,0.2l-0.4,0.4l-0.3,0.5l-0.1,0.4l0.1,0.7l0.3,0.2h0.4l0.3,0.2l1.1,2.6
	l0.5,0.6l1,0.7l1,1l0.2,0.4l-0.3,0.2l-0.1,0.3l0.3,0.7l0.5,0.8l0.2,0.4l0.2,1.4v0.2l-0.1,0.3l0.2,0.1l0.3,0.1l0.3,0.2l0.2,0.3
	l0.1,0.3l0,0.3l0.1,0.4l0.3,0.5l1.4,1.3l1.7,1l0.3,0.4l-0.3,0.6l-0.6,0.1h-0.7l-0.4,0.2l-0.5-0.3l-0.6,0.1l-0.5,0.4l-0.3,0.6l0,0.6
	l0.3,0.4l0.5,0.2l0.6,0.1v0.2l-0.3,0.6l0.3,0.5l0.6,0.3l0.5,0.1l-0.1,0.8l0.2,0.7l0.5,1.3l-0.5,0.8l0.2,1.6l0.1,0.4l0.1,0.1l0,0.1
	l-0.3,0.4l-0.4,0.4l-1.3,0.7l-0.1,0.4l0,0.6l0,0.4l-0.1,0.3l-0.5,1.1l-1.1,0.5l-3.7,0.1l-0.7,0.2l-0.4,0.2l-0.3,0.3l-0.2,0.5
	l-0.3,0.9l-0.3,0.4l-1.6,1.8l-0.6,0.5l-1.1,0.9l-0.9,0.7l-4.7,5.2l-0.6,1l-0.8,0.6l-0.8,0.9l-2.2,3.3l-0.9,0.9l-0.1,0.3l-0.2,0.7
	l-0.1,0.2l-0.2,0.2l-0.4,0.1l-0.2,0.1l-0.2,0.2l-1.3,2.3l-0.3,0.4l-0.2,0.1l-0.4,0.1l-0.2,0.2l-0.2,0.3l-0.4,1l-1.6,2.1l-0.5,1.2
	l0.4,1.2l0.1,0.5l0.1,1.4l0.1,0.4l0.1,0.2l0.3,0.4l0.4,0.5l0.1,0.2l0.1,0.5l0.3,2.9l-0.1,0.5l-0.3,1l-0.3,1.1l-0.3,0.7l-0.1,0.4
	l0.1,0.2l0.1-0.1l0.3-0.3l0.3,0.2h0l-0.1,0l0.7,0.5l0.6,0.8l0.4,0.3l0.9,0.5l0.3,0.3v0.3l-0.2,0.6l0,0.4l0.1,0.3l0.3,0.6l0.1,0.2
	l-0.2,0.5l-0.4-0.2l-0.5-0.4l-0.4-0.2l-0.2-0.1l-0.4-0.6l-0.2-0.2l-0.2,0l-0.5,0.2l-0.8-0.1l-0.4,0.1l-0.4-0.1l-0.5-0.3l-0.8-0.9
	l-0.4-0.1l-0.4,0.4l-0.2,0.5l-0.2,0.7l-0.1,0.7v0.5l-0.3,0.3l-0.8,0.1l-0.4,0.3l-0.4,1.3l-0.3,0.6l0,0.2v0.4l-0.1,0.2l-0.2,0.3
	l-0.5,0.4l-0.2,0.3l-0.1,0.4v0.2l0,0.3l0.1,1.1l-0.1,0.2l-0.2,0.4l-0.2,0.3l-0.2,0.2l-0.2,0.2l-0.1,0.4l0,0.7l-0.1,0.7l-0.3,0.6
	l-0.3,0.4l-0.3,0.2l-0.5,0.2l-0.3,0.2l-0.2,0.2l-0.2,0.5l-0.1,0.2l-1.4,1.1l-0.3,0.5L108,310l0.2,1.3l-0.1,0.5l-0.2,0.5l0,2.3
	l0.5,0.1h0.1l0.2-0.2l0.7-0.3l0.7,0.1l0.7,0.4l-0.3,0.9v0.5l0.6,0l0.2,0l0.2,0.3v0.3l-0.1,0.4l0,0.4l0.2,0.6l1,1.6l0.1,0.1l0.2,0
	l0.2-0.1l0.2-0.1l0.1,0h0.2l0.4,0.2l0.3,0.1l0.3,0l0.4-0.2h0.1l0.1,0l0.1,0l1.5,2.1l0.3,0.6l0.3,1l0.4,0.7l0.1,0.1h0.1l0.3-0.2h1.5
	l0.4-0.1l0.3-0.2l0.4-0.1l0.3,0.2l0.1,0.2l0.8,0.4l0.6,0.6l0.3,0.3l0.2,0.4l0.2,0.6l-0.1,0.3l-0.1,0.3l0,0.5l-0.4,0.4l0.2,0.4
	l0.8,0.6l0.4-0.1l0.4-0.3l0.2-0.4l-0.2-0.7l0.2-0.4l0.3,0l0.4,0.2l0.3,0.2l0.3,0.2l0.3,0.1l0.3-0.1l0.9-0.7l0.3-0.5l0.5-1.4l0.4-0.6
	l0.4-0.2l0.5,0.1l1.4,0.5l0.4,0.3l0.9,1l1,0.8l0.5,0.6l0.2,0.1l0.2,0h0.2l0.2-0.1h0.1l1.4,0.7l0.4,0l0.2-0.1l0.1-0.2l0.1-0.2
	l0.1-0.2l0.2-0.2l0.2-0.1l0.8-0.2l0.4,0.1l1.3,0.2l0.9,0.3l0.5,0.1l1.4-0.1l0.3,0.2l1.1,1l0.1,0.5h0.4l2.1-0.9l0.6,0l0.3,0.3l1,0.3
	l0.4,0.2l0.8,0.7l0.4,0.1l0,0l1.2,0.5l0.4,0l1.5-0.8l1,0l0.8-0.7l0.5-0.3h0.4l1.2,0.3l1.2,0l0.4,0.1l1,0.6l0.5,0.4l0.3,0.4l0.1,0.5
	l0,0.4l0.1,0.4l0.4,0.4l0.7,0.4l1.7,0.7l0.3,0.3l0.3,0.4l0.7,1.3l0.5,0.8l0.4,0.3l2.4-0.4l1.3-0.6l0.9-0.8l2-3.4l0.9-0.6l10.2-1.1
	l1.4-0.6l1.1-0.1l0.6-0.3l0.3-0.1l1,0.1l1.3-0.4l2,0l1-0.4l0.2-0.3l0.5-1.1l0.3-0.3l0.5-0.5l0.3-0.3l0.3-0.7l0.3-1l0.2-1l0-0.7
	l0.2-1l0.2,0.1l0.4,0l0.4-0.1l0.7-0.3l0.3-0.1l1-0.1l0.3-0.1l2.6-0.6l0.6-0.3l0-0.3l0.1-0.4l0.2-0.4l0.7-0.4l0.1-0.4l0.1-0.3
	l0.4,0.2l0.3,0.3l0.2,0.4l0.3,0.3l0.4,0.2l0.4,0l0.2-0.2l0.1-0.4V317l-0.1-0.6l-0.1-0.4l0-0.3l0.2-0.3h0.1l0.3,0.1h0.2l0.2-0.2
	l0.1-0.2l0.1-0.2l0.2-0.1l0.7,0.3l0.7,0.6l0.7,0.4l0.8-0.1l0.2-0.2l0.2,0l0.1,0.1l0.2,0l0.3,0.1l0.1-0.1l0-0.2l-0.1-0.2l0-0.1v-0.2
	l-0.1-0.3l0-0.2l0.2-0.1l0.2,0.1l0.4,0.3l2.2,0.8l0.7,0l0.8-0.4l1.3-1.6l0.8-0.4l0.4,0.1l0.6,0.6l0.3,0.1l0.3-0.2l1.2-1.1l0.5-0.7
	h0.9l0.2-0.1l0.5-0.4l0.4,0.1l0.1,0.8l0.4,0.2l2.6,0l0.7,0.3l1.3,1l0.3,0.3l0.6,1l0.2,0.2l0.5,0.7l0.8,0.3l1.8,0.2l0.4,0.2l0.3,0.4
	l0.1,0.6l-0.4,1.2l0.3,0.2l0.5,0l0.3-0.1l0.6-0.6l0.3-0.1l0.2,0.5l0.1,0.6l0.2,0.4l0.3,0.1l0.5-0.1l0.4-0.3l0.3-0.3l0.3-0.2l1-0.1
	l0.4,0.1l0.2,0.3l0.1,0.6l-0.2,0.6l-0.2,0.3l-0.3,0.2L236,322l-0.1,0.4l0.1,0.4l0.2,0.3l0.4-0.1l0.3-0.4l0.2-0.5l0.3-0.4l0.5-0.1
	l0.3,0.2l0.2,0.4l0,0.5l-0.3,0.4l0.6,1.2l0.3,0.3l0.4,0.3l0.2,0l0.1-0.3v-0.5l0.2-0.7l0.4-1.1l0.5-0.2l0.7,0l1.9,0.8l1.4,0l0.8,0.1
	l0.6,0.4l0.1,0.2l0.1,0.2l0,0.2l0.1,0.2l0.3,0.8l0.2,0.8l0,0.2l0.1,0.2l0.3,0.3l0.5,1l0.7,0.7l0.7,0.6l0.6,0.3l0.8-0.2l0.9-1.2
	l0.7-0.3h0.4l0.3,0.1l0.3,0.2l0.2,0.4l0.2,0.5l0.2,1.1l0.2,0.4l0.3,0.2l0.8,0.3l0.2,0.2l-0.1,0.4l-0.3,0.4l-0.4,0.4l-0.3,0.3
	l-0.2,0.6v0.3l0.2,0.2l0.7,0.3l0.3,0.2l0.1,0.3l-0.2,0.4l-0.6,0.8l-0.1,1l0,1.1l-0.2,1.2l-0.5,0.9l-0.5,0.7l-0.3,0.8l0.3,1.2
	l0.2,0.4l0.3,0.9l0.2,0.3l0.4,0.3l0.2-0.2l0.2-0.3l0.3-0.2l0.3,0.2l0.4,0.7l0.6,0.4l0.2,0.3l0.1,0.4l0.2,0.3l0.3,0.2l0.3,0.1
	l0.3,0.1l0.3,0.4l0.1,0.5v0.4l0.1,0.4l0.3,0.5l0.3,0.3l0.3,0.2l0.3,0l0.3-0.1l0.4-0.3l0.3-0.4l0.1-0.5l0.2-0.5l0.4-0.1l0.4,0
	l0.4,0.2l0.3,0.3l0.3,0.5l0.2,0.7l0,0.7l-0.2,0.5l-0.5,0.3l-0.1,0.7l0.2,1.6l-0.1,0.8l-0.3,0.4l-0.4,0.1l-0.6,0.1l-0.1,0.1v0.2
	l0.1,0.1l0.6,1.2l0.2,0.2l0.2-0.2l0.2-0.4l0.2-0.3l0.4,0l0.3,0.2l0.2,0.3l0.2,0.4l0,0.5l-0.2,0.4l-0.3,0.3l-0.2,0.3l-0.2,1.1
	l-0.1,0.5l0,0.4l0.2,0.3l0.1,0l0.5-0.1l0.2,0.1l0.3,0.4l0.2,0.2l0.3,0.1l0.7,0.1l0.3,0.1l0.3,0.3l0.5,0.8l0.4,0.3l0.7,0.1l0.6-0.1
	l0.6,0.1l0.6,0.5l0.1,0.2l0.2,0.6l0.1,0.2l0.2,0l0.2-0.1l0.2-0.1l0.2,0.1l0.1,0.2v0.7l0,0.3l0.1,0.2l0.2,0.4l0.1,0.2l0,0.6l-0.2,1.9
	l-0.1,0.3l-0.1,0.3l-0.1,0.3v0.4l0.1,0.3l0.3,0.6l0.1,0.3l-0.2,0.7l-0.5,0.1l-0.4,0l0.1,0.7l0.3,0.4l0.9,0.4l0,0.1l0.1,0.3l0.1,0.1
	l0.1-0.1l0.3-0.2h0.1l0.2,0.1l0.1,0.2l0.3,0.5l-0.2,0.3l0.9,0.8l0.3,0.4l0.2-0.2l0.3-0.1l0.3,0.1l0.3,0.2l-0.5,0.9l-0.5,0.5
	l-0.9,0.2l-2.4-0.2l-0.3,0.1l-0.4,0.2l-0.8,0.7l-0.4,0.1l-0.4-0.5l-0.1-0.2v-0.6l0-0.3l-0.1-0.3l-0.4-0.7l-1.1-1.1l-0.3-0.5v0.8
	l-0.2,0.4l-0.4,0.2h-0.6l-0.1,0.2l0.1,0.7l-0.2,0.5l-0.3,0.3l-0.3,0.1l-0.4,0l-0.3-0.2l-0.3-0.4l-0.3-0.7l-0.3-0.3l-0.3-0.1
	l-0.6-0.1l-0.3-0.1l-0.1-0.2l0-0.2l0-0.2l0.1-0.2l0.1-0.2l0.1-0.2l0-0.2l-0.1-0.2l-0.5-0.1l-0.4,0.2l-0.4,0.4l-0.9,1.4h-0.3
	l-0.4-0.6l-0.5-1.1l-0.3-0.1l-0.4,0.6l-0.1,0.4l0.1,0.6v0.3l-0.2,0.4l-0.1,0.1l-0.2-0.1l-0.3,0.1l-0.8,0.8l-0.5,0.3l-0.4-0.3v-0.3
	l0.1-0.3l0.2-0.3l0.1-0.3l0.1-0.4l0-2.6l-0.1-0.7l-0.3-0.4h-0.4l-1.8,1.1l-1.1,0.4l-1.5,1.1l-0.4,0.7l-0.1,0.8l0.2,1.1l0.4,1.4
	l0,0.5l-0.1,0.6l-0.2,0.4v0.4l0.4,0.5l1.2,1.2l0.1,0.7l-0.2,0.7l-0.5,0.8l-0.7,0.8l-0.2,0.5l0.1,0.7l0.4,1.3l-0.1,0.6l-0.5,0.2
	l-3.6,0.9l-0.4,0.2l-0.2,0.4v0.5l0.3,1.1l0.1,0.6l0,0.6l-0.1,0.4l-0.3,0.3l-0.4,0.2l-0.6,0.1l-0.2,0.1v0.2l0.1,0.3l0,0.3l-0.1,0.3
	l-0.5,0.3l-1.4,0.1l-0.3,0.6l0.2,0.6l-0.1,0.2l-0.6,0.2l-0.4,0.2l-0.2,0.2l-0.5,0.7l-0.2,0.3l0.2,0.2l0.3,0.2l0.3,0.3l0.1,0.4l0,0.4
	l0.1,0.4l0.3,0.4l-0.5,0.3l-0.1,0.1l-0.1,0.3v0.1l0.1,0.1l0.1,1l-0.1,0.3l-0.4,0.2l-1.3-0.1l-1.6-0.4l-1.5-0.1l-1.1,0.8l-0.2,0.3
	l-0.2,0.4l-0.1,0.2l0.3,0.3l0.5-0.1l0.6,0.3l0.4,0.6l-0.1,0.6l0.6,1.6l0.4,0.7l0.5,0.3l0.3,0.1l0.7,0.4l1.8,0.5l1.7,0.9l2.8,0.6
	l0.8-0.1l0.7,0l0.3-0.1l0.2-0.3l-0.6-0.3l-0.2-0.1l-0.1-0.2l-0.1-0.3l0.1-0.2l0.6-0.3l0-0.4l0-0.4l0.5-0.1l0.3,0.1l0.5,0.4l0.5,0.1
	l0.3,0.2l0.3,0.4l0.4,0.2l0.5-0.2l0.1-0.2l0.1-0.6l0.1-0.3l0.2-0.1l0.2-0.1l0.5,0l0.3-0.2l1.1-0.9l0.9-0.3l0.4-0.2l0.3-0.3l0.2-0.1
	l0.5,0l0.1-0.1l0.1-0.2l0.2-0.2l0.3-0.3l0.4-0.2l0.3,0l0.3,0.1h0.4l0.2-0.1l0.2-0.1l0.2-0.2l0.1-0.2l0.2-0.1l0.2,0.1l0.2,0.1
	l0.2,0.1l1.6,0.2l2.9,1.1l1,0.9l0.2,0.1l0.5,0.4l0.3,1l0.1,1.2l-0.3,0.8l0.1,0.2l0,0.2l-0.1,0.2l-0.1,0.2l0.3,0.1l0.4-0.1l0.3-0.2
	l0.4-0.4l0,0l0-0.1l0-0.2l0.1-0.3l0.2-0.7l0-0.2l0.2-0.4l0.1-0.3l0-0.3l-0.1-1.3l-0.1-0.6l-0.2-0.6l-0.3-0.3l0.4,0l0.2-0.4l0-0.6
	l-0.2-0.5l-0.3-0.4l-0.2,0.2l-0.1,0.5l-0.1,0.4l-0.1-0.5l-0.1-0.1l-0.2,0l-0.2-0.1v0.1l-0.1,0.1l-0.1,0l-0.1-0.1v-0.7l-0.3,0.1
	l-0.1,0.3l0,0.4l-0.1,0.3l-0.2,0l-0.2-0.2l-0.2-0.2l-0.3-0.7v-0.3l0.3-0.1l0.1-0.1l0.1-0.3l0.1-0.3l0.2-0.1l0.3-0.2l0.7-1.1l0.3-0.3
	l-0.5,0.6l-0.3,0.2l-0.4,0.1l-0.4,0l-0.3-0.1l-0.5-0.3l0.2-1.3l-0.1-1.4l0.1-1.2l0.7-0.6l-0.2-0.3l-0.1-0.2l-0.1-0.2l0-0.4l0.1-0.4
	l0.4-0.5l0.1-0.2l-0.1-0.1l-0.3-0.4l-0.1-0.2l0.1-0.2l0.1-0.2l0.1,0l0.1,0.3l0.1,0.1l0.4,0.4l0.1,0l0.1,0.1l0.1,0.2l0.2,0.3l0,0.2
	l-0.1,0.2l-0.1,0.5l0.1,1.4l-0.1,0.2l0.5,0.3l0.4,0.6l0.2,0.8l0,0.8l0.3-0.2l0.6-0.2l0.3-0.2l-0.1-0.2V399l0.1-0.1l0.1-0.2l0.4,0.2
	l0.4-0.2l0.3-0.3l0.4-0.2l0.1-0.1l-0.2-0.2l-0.3-0.3l-0.5-0.2l-0.3-0.2l-0.2-0.4l0.1-0.6l0.4-0.3l0.6-0.1h0.5l0.1-0.1l0.1-0.1
	l0.1-0.1l0.1-0.1l0.2,0.1l0,0.1l0,0.1l0.1,0.1l0.4,0.3l0.2,0.2l0.1,0.3l0.1-0.8l-0.2-0.2l-0.2-0.3l-0.1-0.4l0-0.5l0.2-0.4l0.2-0.1
	l0.1,0.2l-0.1,0.3v0.2l0.2,0.3l0.2,0.3l0.1-0.7l0.1-0.7l0.2-0.6l0.5-0.2l0.5,0.2l1,0.8l0.2-0.1l0.1-0.1l0.1,0.1l0.1,0.1l0.1,0.1
	l0.2,0l0-0.1v-0.2l0.1-0.2l0-0.2l0.1-0.8l0.1-0.3l0.2-0.3l0.2-0.2l0.2,0.1l0.1,1.7l-0.1,0.4l1.4-1.1l1.2-1.2l2.3-3.1l2.6-2.5
	l0.2-0.4l0.4-1.2l0.2-0.2l0.3-0.2l0.3-0.4l0.4-0.9l1.5-2.1l0.6-1.2l0.1-0.3v-0.3l-0.2-0.2l-0.5-0.3l-0.1-0.2l0.3-0.4l1.1,0.1
	l0.3-0.3l0.9-1.2l0.1-0.1l0.2-0.9l0.1-0.2l0.1-0.1l0.1-0.1l0.1-0.1l-0.1-0.2l-0.2-0.2h-0.1l-0.2-0.6l-0.3-0.8l-0.1-0.4l0.1-0.3
	l0.6-0.9l0.3-0.2h0.2l0.9,0.2l0.3-0.1l1.2-0.9l0.3-0.1l0.2,0.1l0.2,0l0.5-0.4l0.2-0.1l0.5-0.1l0.9-0.3l1.1-0.2l1.1-0.3h0.6l1.4,0.4
	l0.4,0.3l0.2-0.2l0.3,0.2l0.6,0.1l0.3,0.2l0.3-0.2l0.9-0.5l0.4-0.1l0.3-0.3l0.7-1.1l0.3-0.3l0-0.1l0.4-0.6l0.2-0.4l-0.1-0.2
	l-0.7-0.5l-0.2-0.1l-0.1-0.2l-0.1-0.4l0-0.2l-0.2-0.8l0.3,0.1l0.2,0.4l0.3,0.8l0.3,0.2l0.3,0.2l0.2-0.1l0.1-0.1l0-0.1l0.4-0.6
	l0.1-0.2l0.2-0.1l0.4-0.2l0.2-0.1l0.2-0.4l0.1-0.4l0.2-0.2l0.3,0.4l-1,1.4l-0.3,0.2v0.3l-0.3,0.7l-1.1,1.9l-0.2,0.5l0.1,0.4l0.2,0.1
	l0.2,0l0.4,0l0.2,0.1l0.3,0.3l0.2,0.1l0.5-0.1l0.2-0.4l0.2-0.4l0.4-0.2l1.2-0.1l2,0.8l0.9,0.1l0.9-0.2l0.2-0.1l0.5-0.3l0.2-0.2
	l0.2-0.4l0-0.2c0,0-0.1,0,0-0.1"/>
<g id="building_22_">
	<g id="windows_11_">
		<rect x="227.7" y="288.7" class="st0" width="8.7" height="13.7"/>
		<rect x="240.3" y="280.7" class="st0" width="12" height="12"/>
		<rect x="259.3" y="280.7" class="st0" width="10.1" height="14.8"/>
		<rect x="250" y="300" class="st0" width="10.4" height="10.4"/>
		<rect x="259.3" y="314.7" class="st0" width="10" height="12"/>
		<rect x="260.4" y="331.7" class="st0" width="9.5" height="9.5"/>
		<rect x="236.3" y="318.3" class="st0" width="13.3" height="13.3"/>
		<rect x="246.3" y="336.4" class="st0" width="8.9" height="11.9"/>
		<rect x="252.3" y="380.5" class="st0" width="8.1" height="13.3"/>
	</g>
</g>
<g id="building_20_">
	<g id="windows_10_">
		<rect x="295.7" y="278" class="st0" width="8.7" height="13.7"/>
		<rect x="318.2" y="267.3" class="st0" width="12.8" height="14.5"/>
		<rect x="295.7" y="259.7" class="st0" width="11.8" height="13"/>
		<rect x="284.3" y="250.2" class="st0" width="8.3" height="10.3"/>
		<rect x="304.4" y="294.7" class="st0" width="15.1" height="15.1"/>
		<rect x="284.3" y="301" class="st0" width="14.2" height="11"/>
		<rect x="286" y="315.5" class="st0" width="10.6" height="10.6"/>
		<rect x="297.2" y="326.1" class="st0" width="10.3" height="10.3"/>
		<rect x="304.4" y="341.1" class="st0" width="12.6" height="10.9"/>
		<rect x="318.2" y="328.8" class="st0" width="10.3" height="12.3"/>
		<rect x="287.8" y="363.8" class="st0" width="10.7" height="10.7"/>
	</g>
</g>
<g id="building_18_">
	<g id="windows_9_">
		<rect x="373.3" y="302.9" class="st0" width="13.2" height="13.7"/>
		<rect x="364.3" y="291.7" class="st0" width="12.2" height="8.3"/>
		<rect x="352.5" y="309.7" class="st0" width="14.8" height="10.9"/>
		<rect x="345.3" y="326.1" class="st0" width="11.3" height="15"/>
		<rect x="365.6" y="339.8" class="st0" width="20.9" height="8.5"/>
		<rect x="352.5" y="354.8" class="st0" width="13.1" height="13.1"/>
	</g>
</g>
<path class="st6" d="M315.2,383.8l-0.9-0.4l-7.5-1.6l-3.3-1.3l-0.7-0.6l-0.6-0.9l-0.2-0.5l-0.2-0.8v-0.6l0.4,0.2l0.3,1.3l0.3,0.9
	l0.5,0.6l0.8,0.5l6.7,1.7l2.7,0.7l1.7,0.7l0.3,0.2L315.2,383.8z M480.9,278.4l-0.3,1.1l0,1.2l-0.2,0.3l-0.5,0.3l-0.4,0.3l-0.7,1.1
	l-0.4,0.4l-1.2,0.8l-0.6,0.6l-0.4,0.8l-0.1,0.4l0.1,1l-0.1,0.3l-0.2,0.2l-0.3,0l-0.6-0.1h-0.6l-1.7,0.6l-1-0.1l-0.4,0.3l-0.2,1.6
	l0.3,0.4l0.4,0.3l0.4,0.4l0.3,0.6l0.2,0.4l0.2,0.3l0.5,0.2l1.6,0.4l0.7-0.1l0.2,0.1l0.2,0.2l0.4,0.5l0.3,0.1l0.4-0.2l0.4-0.5
	l0.4-0.4l0.5,0.1l0.4,0.5l0.1,0.6l-0.3,0.6l-0.4,0.5l-0.9,0.7l-0.8,0.1l-2.3-0.9l-0.5,0l-0.4,0.2l-0.4,0.5l-0.2,0.3l-0.1,0.4
	l-0.2,0.3l-0.5,0.2l-0.2,0.3l-1.3,4.3l-0.2,0.8l0.8-0.1l0.4-0.2l2.5,0.3l0.5,0.3l0.4,0.6l0.2,0.8l0,0.2l0.1,0.2l0.1,0.1l0,0.1
	l-0.1,0.3l-0.2,0.1l-0.2,0l-0.1,0l0.1,0.5l0.2,0.3l0.2,0.2l0.6,1.4l0.2,0.8l0.2,0.4l0.2,0.3l-0.5,0.5l-0.4,0.5l-1.4,1.2l1.4,0.9
	l0.4-0.1l1.1-0.4l0.4,0.1l0.3,0.5l-0.1,0.6l-0.3,0.6l-0.4,0.4l-1,0.8l-0.4,0.5l-1,2l-0.3,0.6l-0.1,0.7l0.3,1l0,0.3l-0.1,0.1l-0.1,0
	l-1.1,0.2l-0.2,0.2l-0.2,0.3l0.1,0.2l0.2,0.2l0.2,0.3l0.3,0.7l0,0.3l-0.1,0.5l-0.1,0.2l-0.2,0.5l-0.1,0.3v0.2l0.1,0.4l0,0.2
	l-0.2,0.9l-0.3,0.8l-0.5,0.5l-0.7,0.1l-2.1-0.6l-0.6-0.1l-1.3,0.3l-0.6-0.1l-0.5-0.2l-0.9,0.3l-0.5,0l-0.4-0.2l-0.7-0.5l-0.4-0.1
	l-3.1,0.1l-0.8,0.2l-0.4,0l-0.4-0.1l-1.1-0.8l-3.4-0.1l-1,0.4l-0.7,0.9l-0.5,1.2l-0.4,1.4l-0.2,1.3l-0.2,0.5l-0.4,0.1l-0.7-0.3
	l-0.3,0.1l-0.4,0.3l-0.8,0.9l-0.4,0.3l-0.5,0.2l-4.3,0.6l-0.7,0.5l-0.5,0.9l-0.4,1.1l-0.3,1.1l0.1,2.2l-0.1,0.9l-0.5,0.9l-0.6,0.9
	l-0.3,0.6l-0.1,0.5l0.3,0.3l0.4,0.1l0.8-0.1l0.4,0l0.3,0.2l0.2,0.3l-0.1,0.6l-0.3,0.4l-0.4,0.3l-0.5,0.2l-0.4,0.3l-0.4,0.7l-0.1,0.9
	l0.1,1l0.3,0.8l-0.4,0.4l-1.1,1.6l-0.7,0.3l0.5-1v-0.5l-0.5-0.2l-0.7-0.6l-0.1,0.1l-0.1,0.1l-0.5,0.3l-0.2,0.1l-0.8-0.3l-0.5-0.1
	l-0.2,0.1l-1.8-0.3l-2.2,0.8l-0.9,0l-2.7-0.5l-0.7,0.3l-1.3,1.4l-2.2,3.1l-0.5,1.1l-0.3,0.5l-0.5,0.2l0.1-0.8l-0.5-0.6l-0.7-0.4
	l-0.7-0.1l-0.4,0.1l-1,0.8l-2.4,7.9l-0.4,0.1l-0.2,0.1l-0.7,0.6l-0.2,0.1l-0.7,0.3l-1.1,1.1l-0.7,0.1l0.2,0.7l-0.3,0.7l-0.4,0.7
	l-0.2,0.7l-0.2,0.8l-0.4,0.8l-0.5,0.5l-0.5-0.2v-0.2h0.2l0.4,0.2l0.4-0.8l0.3-1.1v-0.6l-0.2-0.1l-0.8-0.9l-0.3-0.2l-0.7-0.2
	l-0.3-0.2l-0.3,0.2l-0.4,0l-0.6-0.2l-0.3,0.1l-0.2,0.2l-0.2,0.2l-0.2,0.1h-1.4l-0.9,0.5l-1,0.2l-0.7,0.3l-0.6,0.5l-1.4,1.5l-0.4,0.7
	l-0.1,0.9h-0.2v-0.4l-0.1-0.1l-0.2,0.1l-0.2,0.1l0,0.2l0,0.1l-0.1-0.3l0.1-0.1l0-0.2v-0.2l-0.2-0.2l-0.1-0.1l-0.2-0.4l-0.1-0.1
	l-0.1-0.1l-0.4-0.2h-0.4l-0.8,0.2l-1.5-0.2l-2.8,0.6l-0.5,0l-1.5,0.9l-1.1,0.7l-0.6,0.5l-1.7,2l-0.7,0.6l-2.4,1.3l-0.4,0.3l-0.3,0.4
	l-0.6,0.9l-0.3,0.3l-0.7,0.5l-0.3,0.3l-2,3.3l-0.4,0.5l-1.1,2.3l-0.5,0.7l-0.5,0.5l-0.8,0.3l-0.5,0.4l-0.7,0.2l-0.5,0.4l-0.8,0.4
	L374,386l0.1-0.3l0.7-0.8l0.7-0.5l-0.1-0.1l-0.1-0.3l2.2-0.7l1.1-0.6l0.6-1.2l0.5-0.6l0.2-0.5l0.6-1.1l0.8-0.8l0.3-0.5l0.1-0.8
	l-0.4,0.4l-0.4,0.3l-0.4,0l-0.5-0.4l-0.2-0.7l0.1-0.8l0.4-1.1l-0.2-0.1l-0.3,0l-0.2-0.1l-0.2-0.1l-0.3-0.3l-0.3-0.2l-0.3-0.4
	l-0.2-0.6l-0.1-0.6l-0.4,0.6l0.2,0.6l0.4,0.6l0.2,0.4l0.1,0.4l0.1,0.2l0.1,0.3l-0.1,0.5l-0.2,0.3l-0.7,0.7l-1.2,1.9l-0.7,0.8
	l-0.9,0.6l-2,0.5h-0.2l-0.3-0.1l-0.1-0.2l0-0.2l-0.1-0.1l-0.2,0.1l-0.2,0.3l0,0.3l-0.1,0.3l-0.9,0.4l-0.1,0.1l-0.4,0.5l-0.1,0.3
	l0,0.3l0,0.2l0.1,0.5l0.1,1.9l0.1,0.4l0.2,0.5l0.8,3.7l0.2,0.4l0.2,0.3l0.2,0.4l1.1,3l1.8,3.6l6,8.9l3.1,2.2l0.8,0.1l3.7-1l0.4-0.3
	l0.6-0.6l0.1-0.3l0-0.3l0.1-0.2l0.3-0.1l0.1-0.1l0.3-0.4l0.1-0.1l0.1-0.6l0.2-0.6l0.3-0.4l0.3-0.2l0.5,0.1l0.1,0.3l-0.2,0.5
	l-0.1,0.5l0.2,0.4l0.4,0.3l1.6,0.9l0.8,0.3l0.8-0.2l0.6-0.8l0.3-0.9l0.1-0.1l0.6-0.4l0.4-0.4l0.4-0.2l2.4,0l0.3-0.3l0.3-0.3l0.3,0.1
	l0.2,0.4l-0.2,0.5h0.3l0.2-0.2l0.2-0.2l0.2-0.1l0.4,0.1l0.6,0.4l0.4,0.1l1.2-0.3l0.4,0.1l0.5,0.7l0.3,0.3l0.3-0.1l0.4-0.4l0.3-0.1
	l0.3,0.2l0.3,0.4l0.4,1l0.2,0.7L408,408l-0.7,0.2h-0.3l-0.2-0.1l-0.6-0.3l-0.5-0.1l-0.4,0.1l-0.3,0.3l-0.1,0.6l0.1,0.2l0.1,0.1
	l0.1,0.1l-0.1,0.3l-0.2,0.1l-0.5,0l-0.2,0.1l-0.3,0.4l-0.2,0.6l-0.2,0.6l-0.2,1.7v0.6l0.1,0.6l0.6,0.6l0.3,0.4l-0.1,0.4l-0.3,0.3
	l-1.5,0.6l-1.8,0.1l-0.2,0.1l-0.2,0.1l-0.1,0.2l-0.1,0.5l-0.1,0.2l-0.4,0.1l-1.8-0.4l-1.2-0.7v0.2l-0.7-0.3l-0.5,0.5l-0.4,0.7
	l-0.3,0.3l-1.6-0.1l-1.4,0.3l-0.4-0.2l-0.2-0.7l-0.1-0.3l-0.6-0.8l-0.2-0.2l-1.4-0.9l-1.5-0.6l-0.9-0.2h-0.9l-0.9,0.2l-0.8,0.4
	l-1.1,0.9l-0.2,0.2l-0.1,0.3l-0.1,0.2l-0.1,0.2l0.1,0.3l0.1,0.1l0.6,0.3v0.2l-0.3,0.1l-0.7-0.1l-0.3,0.1l-0.2,0.3l0,0.4l0.1,0.9
	l-1-0.8l-0.1,0.1l-0.2,0.2l-0.1,0.1l-0.5-0.3l-0.4,0.3l-0.5,1l-0.4,0.3l-0.9,0.2l-0.4,0.2l-0.5,0.9l-0.4,1.3l-0.6,0.9L375,424
	l-0.2-0.3l-0.2-0.4l-0.3-0.4l-0.4-0.2l-0.7,0l-0.2,0l-0.2,0.1l-0.2,0.2l-0.1,0.2l-0.2,0.1l-0.4,0.1l-0.7-0.2l-0.3,0.2l-0.3,0.2
	l-1.4-0.3l-0.8,0.3l-1.5,1l-0.8,0.3l-1.7,0.4l-0.7,0.3l-0.5,0.6l0-0.1v-0.1l0,0h-0.1l-0.8,1.2l-0.1,0.2l-0.2,0.3l-0.7,1.2l-0.8,2.1
	l-0.2,0.4l-0.2,0.1l-0.5-0.1h-0.3l-0.2,0l0,0.1l-0.1,0.1v0.2l-0.1,0.1l-0.4,0.7l-0.3,0.2l-1,0.2l-0.3,0.3l-0.2,0.4l-0.3,0.5
	l-0.2,0.2l-0.7,0.5l-0.3,0.1l-0.5,0.1l-2.2,1.1l-0.4,0.1l-0.5-0.1l-1.3-0.5h-0.3l-0.4,0.1l-0.2,0l-1.4,0l-0.4-0.1l-1.6-0.7l-0.3-0.3
	l-0.1-0.6l-0.1-0.3l-0.6-0.8l-0.2-0.2l-0.4,0l-0.4,0.1l-0.4,0l-0.4-0.3l-0.3-0.3l-2.2-1.6l-0.2-0.3l0-0.3l0.1,0.1l0.6-0.1l0.2-0.1
	l0.5-0.3l0.2-0.1l0.4,0l0.2,0l0.2-0.1l0.3-0.1l1.1,0l0.4-0.2l-0.3-0.1l-0.7-0.1l-0.2-0.2l0-0.4l0.2-0.4l0.3-0.3l0.2-0.3l0.1-0.5
	l0-0.3l-0.2-0.6l-0.1-0.8l-0.1-0.4l-0.2-0.4l0.2-0.1l0.1-0.1l0.1-0.2l0.1-0.6l0.2-0.5l0.3-0.4l0.8-0.3l0.2-0.4l0.1-0.5l0.1-0.6v-0.7
	l-0.2-1.2l-0.1-0.5l-0.1-0.2l-0.4-0.7l-0.1-0.3l-0.1-0.8l-0.3-1.2l-0.5-0.7l-1.4-0.9l-1.1-1.1l-0.4-0.2l-0.9,0.1l-0.8,0.3l-0.7,0.4
	l-0.5,0.1l-0.2-0.3l-0.2-0.4l-0.4-0.2l-0.9-0.3l-0.3-0.3l-0.7-0.9l-0.5-0.3l-0.2-0.3l-0.2-0.4l-0.2-0.1l-0.4-0.2l-0.2-0.1l-1.3-1.2
	l-0.8-0.5l-0.9-0.3l-3.1-0.3l-0.4,0.1l-0.3,0.2l-0.7,0.8l-0.3,0.2h-1.5l-0.4-0.2l-0.7-0.4l-0.5-0.1l-0.6-1.6l-0.1-0.4l0.3-0.8
	l0.6-0.7l2.4-1.9l0.4-0.1l0.5-0.1l0.4-0.1l0.3-0.2l0.3-0.2l0.2-0.2l0.1-0.2l0.2-0.2l0.3-0.1l0.2,0l0.4,0.2l0.2,0l0.3-0.1l0-0.2
	l-0.1-0.3l0-0.2l0.1-0.3l0.1-0.2l0.2-0.2l0.6-0.7l1.4-1l4.7-2.2l0.3-0.2l0.1-0.4l-0.1-0.1l-0.2-0.1l-0.2-0.2l0-0.3l0.2-0.2l0.2,0.1
	l0.3,0.4l0.7,0.4l0.7-0.1l1.5-0.9l0.8-0.3l0.1-0.2l0.6-0.7l0.3-0.1l0.9-0.6l0.3-0.1l0.2,0.1l0.4,0.3l0.3,0.1l0.2,0l0.5-0.2l0.5-0.6
	l0.4-0.3l0.2-0.1l0.2,0l0.2,0.1l0.2,0.1l0.2,0.2l0.1,0.2l0.1,0.2l0.2,0l0.4-0.1l0-0.3l-0.1-0.7l0.1-0.6l0.3,0.1l0.3-0.2l0.7-0.2
	l0.4-0.2l-0.4-0.3l-0.4-0.2l-1.2-0.3l-0.5,0.1l-0.2,0.1l-0.2,0.2l-0.2,0.1l-0.3-0.2l0.4-0.5l0.2-0.3l0.1-0.1l-0.2-0.1l0-0.2l0.1-0.3
	l0.2-0.3l0-0.2l-0.3-1l0-0.3l0.2-0.3l0.2-0.3l-0.1-0.5l-0.6-1.2l-0.3-0.3l-0.5,0.2l-0.4,0.4l-0.4,0.4l0,0.4l0.5,0.4v0.2l-0.5,0
	l-0.5,0.2l-0.2,0.4l0.4,0.6h-0.2l-0.4-0.2h-1.3l-0.2-0.2l-0.6-0.9l-0.5-0.5l-0.5-0.1l-0.4,0.6l-0.1-0.2l-0.1,0h-0.1l-0.1,0l0.3-0.3
	l0.2-0.4l-0.1-0.3l-0.5-0.2l-1.6,0.2l0.2-0.4l0.1-0.4l0.2-2.1l-0.5,0.5L337,383l-0.4,0.8l-0.7,0.3l-0.2,0l-0.3,0.1h-0.2l-0.2-0.1
	l-0.4-0.3l-1.2-0.6l0.2,0.9l-0.3,0.4l-2.2,0.4h-0.3l-0.2,0l-0.2-0.1l-0.2,0l-0.5,0l-0.2,0l-1.1-0.4l-0.5-0.1l-0.3,0.1l-0.8,0.4
	l-2.6,0.5l-0.2,0.1l-0.2,0.2l-0.3,0.4l-0.2,0.1l-0.8,0.1l-4.2-1.2l-0.5-0.3l-0.3,0l-0.1-0.1l0-0.1l-0.1-0.4l0-0.1l-0.1-0.2l-0.1-0.4
	l-0.1-0.2l0.4-0.4l0.1-0.2l0.1-0.3l-0.6,0.3l-0.5,0.1l-0.5-0.1l-0.9-0.3l-0.3-0.1l-0.3-0.2l-0.8-1.1l-0.6-0.5l-0.6,0.3l-1-0.6
	l-1.7-1.3l-0.1,0.4l0.1,0.4l0.1,0.3l-0.2,0.1l-1.3-0.1l-0.4-0.1l-0.3-0.2l-0.3-0.3l-0.1-0.5l0.3-0.4l0.4-0.3l0.3-0.2l0.4-0.1
	l1.1,0.3l1.6-0.3l0.2-0.1l1.1-1l0.3-0.1h0.3l0.2-0.1l-0.2-0.4l-0.9-1.3l-0.3-0.1l-0.8,0.1l-0.9-0.2l-2.9-1.2l-0.5-0.1l-0.5,0
	l-0.3,0.2l-0.3,0.3l-0.1,0.2l-0.1,0.2l0,0.3l0,0.9l-0.5-1.3l-0.2-0.2l-0.3-0.1l-2.4-2.5l-0.3-0.7l0.7,0.5l0.5,0.6l0.3,0.2l3.6-0.3
	l0.7,0.2l1.2,0.7l0.3,0.1h1.8l1.8,0.4l1.2-0.2h0.4l2.3,0.5l1.1,0.7l0.9,0.2l0.9-0.1l0.8-0.3l0.6-0.6l-0.4-0.6l0.6-0.8l1.5-1.2
	l0.4-0.3l1-0.1l0.4-0.2l0.3-0.3l0.3-0.2l0.3-0.3l0.2-0.5l-0.5,0.2l-0.5,0.4l-0.6,0.3l-0.5-0.1l-2.8,1.6l-1.5,0.2l-1.4-0.8l-0.3-0.5
	l-0.1-0.1l-0.2,0.1l-0.3,0.4l-0.2,0.1l-0.2,0l-0.4,0.2l-0.2,0l-0.5,0.6l-0.3-0.3l-0.3-1.1l-0.3-0.2l-1.3-0.3l-0.3-0.2l-0.3-0.3
	l-0.3-0.5l-0.3-0.6l-0.1-0.5l-0.1-0.6l-0.2-0.4l-0.2-0.4l-0.2-0.5l-0.1-1.3l0.4-0.9l0.5-0.9l0.4-1.1l0.1-0.6l0-0.4l-0.2-0.3l-1-0.2
	l-0.2-0.3l0.1-0.4l0.6-0.9l0.2-0.3l-0.1-0.2l-0.6-0.1l-0.9,0.2l-0.4-0.1l-0.3-0.3l0.6-1.3l0.1-0.7l-0.3-0.8l-0.3-0.3l-0.3-0.1
	l-0.2-0.1l-0.2-0.5l-0.1-0.6v-0.3l-0.1-0.2l-0.3-0.3l-1.3-0.6L307,351l0.1-0.6l0-0.2l-0.2-0.1l-0.1,0.1l-0.3,0.6l-0.1,0.2l0.1,0.3
	l0.3,0.3l0.4,0.3l0.9,0.2l0.2,0.4l0,1.8l0.1,0.2l0.5,0.1l0.2,0.2l0.1,0.1l0.1,0.1l0.3,0.2l-0.2,0.5l-0.3,0.5l-0.2,0.2l-0.2,1.4
	l0.7,0.3l0.9-0.1l0.7,0.1l-0.6,0.7l-0.3,0.5l-0.1,0.5l0.2,0.5l0.4,0.1l0.5-0.2l0.4-0.3l0.1,0.7l-0.2,0.9l-0.4,0.8l-0.5,0.3l-0.5,0.2
	l-0.4,0.4l-0.3,0.7v0.8l0.8,1.1l0.1,0.2l-0.2,1.3l0.1,0.5l0.1,0.2l0,0.2l-0.2,0.4l-0.2,0.2l-0.5,0.3l-0.2,0.1l-0.9,0.2l-0.9-0.1
	l-2-0.8l-1.2,0.1l-0.4,0.2l-0.2,0.4l-0.2,0.4l-0.5,0.1l-0.2-0.1l-0.3-0.3l-0.2-0.1l-0.4,0l-0.2,0l-0.2-0.1l-0.1-0.4l0.2-0.5l1.1-1.9
	l0.3-0.7v-0.3l0.3-0.2l1-1.4l-0.3-0.4l-0.2,0.2l-0.1,0.4l-0.2,0.4l-0.2,0.1l-0.4,0.2l-0.2,0.1l-0.1,0.2l-0.4,0.6l0,0.1l-0.1,0.1
	l-0.2,0.1l-0.3-0.2l-0.3-0.2l-0.3-0.8l-0.2-0.4l-0.3-0.1l0.2,0.8l0,0.2l0.1,0.4l0.1,0.2l0.2,0.1l0.7,0.5l0.1,0.2l-0.2,0.4l-0.4,0.6
	l0,0.1l-0.3,0.3l-0.7,1.1l-0.3,0.3l-0.4,0.1l-0.9,0.5l-0.3,0.2l-0.3-0.2l-0.6-0.1l-0.3-0.2l-0.2,0.2l-0.4-0.3l-1.4-0.4H295l-1.1,0.3
	l-1.1,0.2l-0.9,0.3l-0.5,0.1l-0.2,0.1l-0.5,0.4l-0.2,0l-0.2-0.1l-0.3,0.1l-1.2,0.9l-0.3,0.1l-0.9-0.2h-0.2l-0.3,0.2l-0.6,0.9
	l-0.1,0.3l0.1,0.4l0.3,0.8l0.2,0.6h0.1l0.2,0.2l0.1,0.2l-0.1,0.1l-0.1,0.1l-0.1,0.1l-0.1,0.2l-0.2,0.9l-0.1,0.1l-0.9,1.2l-0.3,0.3
	l-1.1-0.1l-0.3,0.4l0.1,0.2l0.5,0.3l0.2,0.2v0.3l-0.1,0.3l-0.6,1.2l-1.5,2.1l-0.4,0.9l-0.3,0.4l-0.3,0.2l-0.2,0.2l-0.4,1.2l-0.2,0.4
	l-2.6,2.5l-2.3,3.1l-1.2,1.2l-1.4,1.1l-4.8,4.6l-2.1,1.6l-1.6,0.7l1-0.6l0.4-0.3l0.2-0.3l0.1-0.3l0.3-0.1l0.3-0.1l0.3-0.1l0.3-0.3
	l0.6-0.7l0.3-0.3l3.3-3.1l1.3-0.8l0.1-0.4l-0.1-1.7l-0.2-0.1l-0.2,0.2l-0.2,0.3l-0.1,0.3l-0.1,0.8l0,0.2l-0.1,0.2v0.2l0,0.1l-0.2,0
	l-0.1-0.1l-0.1-0.1l-0.1-0.1l-0.1,0.1l-0.2,0.1l-1-0.8l-0.5-0.2l-0.5,0.2l-0.2,0.6l-0.1,0.7l-0.1,0.7l-0.2-0.3l-0.2-0.3v-0.2
	l0.1-0.3l-0.1-0.2l-0.2,0.1l-0.2,0.4l0,0.5l0.1,0.4l0.2,0.3l0.2,0.2l-0.1,0.8l-0.1-0.3l-0.2-0.2l-0.4-0.3l-0.1-0.1l0-0.1l0-0.1
	l-0.2-0.1l-0.1,0.1l-0.1,0.1l-0.1,0.1l-0.1,0.1h-0.5l-0.6,0.1l-0.4,0.3l-0.1,0.6l0.2,0.4l0.3,0.2l0.5,0.2l0.3,0.3l0.2,0.2l-0.1,0.1
	l-0.4,0.2l-0.3,0.3l-0.4,0.2l-0.4-0.2l-0.1,0.2l-0.1,0.1v0.1l0.1,0.2l-0.3,0.2l-0.6,0.2l-0.3,0.2l0-0.8l-0.2-0.8l-0.4-0.6l-0.5-0.3
	l0.1-0.2l-0.1-1.4l0.1-0.5l0.1-0.2l0-0.2l-0.2-0.3l-0.1-0.2l-0.1-0.1l-0.1,0l-0.4-0.4l-0.1-0.1l-0.1-0.3l-0.1,0l-0.1,0.2l-0.1,0.2
	l0.1,0.2l0.3,0.4l0.1,0.1l-0.1,0.2l-0.4,0.5l-0.1,0.4l0,0.4l0.1,0.2l0.1,0.2l0.2,0.3l-0.7,0.6l-0.1,1.2l0.1,1.4l-0.2,1.3l0.5,0.3
	l0.3,0.1l0.4,0l0.4-0.1l0.3-0.2l0.5-0.6l-0.3,0.3l-0.7,1.1l-0.3,0.2l-0.2,0.1l-0.1,0.3l-0.1,0.3l-0.1,0.1l-0.3,0.1v0.3l0.3,0.7
	l0.2,0.2l0.2,0.2l0.2,0l0.1-0.3l0-0.4l0.1-0.3l0.3-0.1v0.7l0.1,0.1l0.1,0l0.1-0.1v-0.1l0.2,0.1l0.2,0l0.1,0.1l0.1,0.5l0.1-0.4
	l0.1-0.5l0.2-0.2l0.3,0.4l0.2,0.5l0,0.6l-0.2,0.4l-0.4,0l0.3,0.3l0.2,0.6l0.1,0.6l0.1,1.3l0,0.3l-0.1,0.3l-0.2,0.4l0,0.2l-0.2,0.7
	l-0.1,0.3l0,0.2l0,0.1l0,0l-0.4,0.4l-0.3,0.2l-0.4,0.1l-0.3-0.1l0.1-0.2l0.1-0.2l0-0.2l-0.1-0.2l0.3-0.8l-0.1-1.2l-0.3-1l-0.5-0.4
	l-0.2-0.1l-1-0.9l-2.9-1.1l-1.6-0.2l-0.2-0.1l-0.2-0.1l-0.2-0.1l-0.2,0.1l-0.1,0.2l-0.2,0.2l-0.2,0.1l-0.2,0.1h-0.4l-0.3-0.1l-0.3,0
	l-0.4,0.2l-0.3,0.3l-0.2,0.2l-0.1,0.2l-0.1,0.1l-0.5,0l-0.2,0.1l-0.3,0.3l-0.4,0.2l-0.9,0.3l-1.1,0.9l-0.3,0.2l-0.5,0l-0.2,0.1
	l-0.2,0.1l-0.1,0.3l-0.1,0.6l-0.1,0.2l-0.5,0.2l-0.4-0.2l-0.3-0.4l-0.3-0.2l-0.5-0.1l-0.5-0.4l-0.3-0.1l-0.5,0.1l0,0.4l0,0.4
	l-0.6,0.3l-0.1,0.2l0.1,0.3l0.1,0.2l0.2,0.1l0.6,0.3l-0.2,0.3l-0.3,0.1l-0.7,0l-0.8,0.1l-2.8-0.6l-1.7-0.9l-1.8-0.5L237,409
	l-0.3-0.1l-0.5-0.3l-0.4-0.7l-0.6-1.6l0.1-0.6l-0.4-0.6l-0.6-0.3l-0.5,0.1l-0.3-0.3l0.1-0.2l0.2-0.4l0.2-0.3l1.1-0.8l1.5,0.1
	l1.6,0.4l1.3,0.1l0.4-0.2l0.1-0.3l-0.1-1l-0.1-0.1v-0.1l0.1-0.3l0.1-0.1l0.5-0.3l-0.3-0.4l-0.1-0.4l0-0.4l-0.1-0.4l-0.3-0.3
	l-0.3-0.2l-0.2-0.2l0.2-0.3l0.5-0.7l0.2-0.2l0.4-0.2l0.6-0.2l0.1-0.2l-0.2-0.6l0.3-0.6l1.4-0.1l0.5-0.3l0.1-0.3l0-0.3l-0.1-0.3v-0.2
	l0.2-0.1l0.6-0.1l0.4-0.2l0.3-0.3l0.1-0.4l0-0.6l-0.1-0.6l-0.3-1.1v-0.5l0.2-0.4l0.4-0.2l3.6-0.9l0.5-0.2l0.1-0.6l-0.4-1.3l-0.1-0.7
	l0.2-0.5l0.7-0.8l0.5-0.8l0.2-0.7l-0.1-0.7l-1.2-1.2l-0.4-0.5v-0.4l0.2-0.4l0.1-0.6l0-0.5l-0.4-1.4l-0.2-1.1l0.1-0.8l0.4-0.7
	l1.5-1.1l1.1-0.4l1.8-1.1h0.4l0.3,0.4l0.1,0.7l0,2.6l-0.1,0.4l-0.1,0.3l-0.2,0.3l-0.1,0.3v0.3l0.4,0.3l0.5-0.3l0.8-0.8l0.3-0.1
	l0.2,0.1l0.1-0.1l0.2-0.4v-0.3l-0.1-0.6l0.1-0.4l0.4-0.6l0.3,0.1l0.5,1.1l0.4,0.6h0.3l0.9-1.4l0.4-0.4l0.4-0.2l0.5,0.1l0.1,0.2
	l0,0.2l-0.1,0.2l-0.1,0.2l-0.1,0.2l0,0.2l0,0.2l0.1,0.2l0.3,0.1l0.6,0.1l0.3,0.1l0.3,0.3l0.3,0.7l0.3,0.4l0.3,0.2l0.4,0l0.3-0.1
	l0.3-0.3l0.2-0.5l-0.1-0.7l0.1-0.2h0.6l0.4-0.2l0.2-0.4v-0.8l0.3,0.5l1.1,1.1l0.4,0.7l0.1,0.3l0,0.3v0.6l0.1,0.2l0.4,0.5l0.4-0.1
	l0.8-0.7l0.4-0.2l0.3-0.1l2.4,0.2l0.9-0.2l0.5-0.5l0.5-0.9l-0.3-0.2l-0.3-0.1l-0.3,0.1l-0.2,0.2l-0.3-0.4l-0.9-0.8l0.2-0.3l-0.3-0.5
	l-0.1-0.2l-0.2-0.1h-0.1l-0.3,0.2l-0.1,0.1l-0.1-0.1l-0.1-0.3l0-0.1l-0.9-0.4l-0.3-0.4l-0.1-0.7l0.4,0l0.5-0.1l0.2-0.7l-0.1-0.3
	l-0.3-0.6l-0.1-0.3v-0.4l0.1-0.3l0.1-0.3l0.1-0.3l0.2-1.9l0-0.6l-0.1-0.2l-0.2-0.4l-0.1-0.2l0-0.3v-0.7l-0.1-0.2l-0.2-0.1l-0.2,0.1
	l-0.2,0.1l-0.2,0l-0.1-0.2l-0.2-0.6l-0.1-0.2l-0.6-0.5l-0.6-0.1l-0.6,0.1l-0.7-0.1l-0.4-0.3l-0.5-0.8l-0.3-0.3l-0.3-0.1l-0.7-0.1
	l-0.3-0.1l-0.2-0.2l-0.3-0.4l-0.2-0.1l-0.5,0.1l-0.1,0l-0.2-0.3l0-0.4l0.1-0.5l0.2-1.1l0.2-0.3l0.3-0.3l0.2-0.4l0-0.5l-0.2-0.4
	l-0.2-0.3l-0.3-0.2l-0.4,0l-0.2,0.3l-0.2,0.4l-0.2,0.2l-0.2-0.2l-0.6-1.2l-0.1-0.1v-0.2l0.1-0.1l0.6-0.1l0.4-0.1l0.3-0.4l0.1-0.8
	l-0.2-1.6l0.1-0.7l0.5-0.3l0.2-0.5l0-0.7l-0.2-0.7l-0.3-0.5l-0.3-0.3l-0.4-0.2l-0.4,0l-0.4,0.1l-0.2,0.5l-0.1,0.5l-0.3,0.4l-0.4,0.3
	l-0.3,0.1l-0.3,0l-0.3-0.2L258,349l-0.3-0.5l-0.1-0.4v-0.4l-0.1-0.5l-0.3-0.4l-0.3-0.1l-0.3-0.1l-0.3-0.2l-0.2-0.3l-0.1-0.4
	l-0.2-0.3l-0.6-0.4l-0.4-0.7l-0.3-0.2l-0.3,0.2l-0.2,0.3l-0.2,0.2l-0.4-0.3l-0.2-0.3l-0.3-0.9l-0.2-0.4l-0.3-1.2l0.3-0.8l0.5-0.7
	l0.5-0.9l0.2-1.2l0-1.1l0.1-1l0.6-0.8l0.2-0.4l-0.1-0.3l-0.3-0.2l-0.7-0.3l-0.2-0.2v-0.3l0.2-0.6l0.3-0.3l0.4-0.4l0.3-0.4l0.1-0.4
	l-0.2-0.2l-0.8-0.3l-0.3-0.2l-0.2-0.4l-0.2-1.1l-0.2-0.5l-0.2-0.4l-0.3-0.2l-0.3-0.1h-0.4l-0.7,0.3l-0.9,1.2l-0.8,0.2l-0.6-0.3
	l-0.7-0.6l-0.7-0.7l-0.5-1l-0.3-0.3l-0.1-0.2l0-0.2l-0.2-0.8l-0.3-0.8l-0.1-0.2l0-0.2l-0.1-0.2l-0.1-0.2l-0.6-0.4l-0.8-0.1l-1.4,0
	l-1.9-0.8l-0.7,0l-0.5,0.2l-0.4,1.1l-0.2,0.7v0.5l-0.1,0.3l-0.2,0l-0.4-0.3l-0.3-0.3l-0.6-1.2l0.3-0.4l0-0.5l-0.2-0.4l-0.3-0.2
	l-0.5,0.1l-0.3,0.4l-0.2,0.5l-0.3,0.4l-0.4,0.1l-0.2-0.3l-0.1-0.4l0.1-0.4l0.3-0.4l0.3-0.2l0.2-0.3l0.2-0.6l-0.1-0.6l-0.2-0.3
	l-0.4-0.1l-1,0.1l-0.3,0.2l-0.3,0.3l-0.4,0.3l-0.5,0.1l-0.3-0.1l-0.2-0.4l-0.1-0.6l-0.2-0.5l-0.3,0.1l-0.6,0.6l-0.3,0.1l-0.5,0
	l-0.3-0.2l0.4-1.2l-0.1-0.6l-0.3-0.4l-0.4-0.2l-1.8-0.2l-0.8-0.3l-0.5-0.7l-0.2-0.2l-0.6-1l-0.3-0.3l-1.3-1l-0.7-0.3l-2.6,0
	l-0.4-0.2l-0.1-0.8l-0.4-0.1l-0.5,0.4l-0.2,0.1h-0.9l-0.5,0.7l-1.2,1.1l-0.3,0.2l-0.3-0.1l-0.6-0.6l-0.4-0.1l-0.8,0.4l-1.3,1.6
	l-0.8,0.4l-0.7,0l-2.2-0.8l-0.4-0.3l-0.2-0.1l-0.2,0.1l0,0.2l0.1,0.3v0.2l0,0.1l0.1,0.2l0,0.2l-0.1,0.1l-0.3-0.1l-0.2,0l-0.1-0.1
	l-0.2,0l-0.2,0.2l-0.8,0.1l-0.7-0.4l-0.7-0.6l-0.7-0.3l-0.2,0.1l-0.1,0.2l-0.1,0.2l-0.2,0.2h-0.2l-0.3-0.1h-0.1l-0.2,0.3l0,0.3
	l0.1,0.4l0.1,0.6v0.6l-0.1,0.4l-0.2,0.2l-0.4,0l-0.4-0.2l-0.3-0.3l-0.2-0.4l-0.3-0.3l-0.4-0.2l-0.1,0.3l-0.1,0.4l-0.7,0.4l-0.2,0.4
	l-0.1,0.4l0,0.3l-0.6,0.3l-2.6,0.6l-0.3,0.1l-1,0.1l-0.3,0.1l-0.7,0.3l-0.4,0.1l-0.4,0l-0.2-0.1l-0.2,1l0,0.7l-0.2,1l-0.3,1
	l-0.3,0.7l-0.3,0.3l-0.5,0.5l-0.3,0.3l-0.5,1.1l-0.2,0.3l-1,0.4l-2,0l-1.3,0.4l-1-0.1l-0.3,0.1l-0.6,0.3l-1.1,0.1l-1.4,0.6
	l-10.2,1.1l-0.9,0.6l-2,3.4l-0.9,0.8l-1.3,0.6l-2.4,0.4l-0.4-0.3l-0.5-0.8l-0.7-1.3l-0.3-0.4l-0.3-0.3l-1.7-0.7l-0.7-0.4l-0.4-0.4
	l-0.1-0.4l0-0.4l-0.1-0.5l-0.3-0.4l-0.5-0.4l-1-0.6l-0.4-0.1l-1.2,0l-1.2-0.3h-0.4l-0.5,0.3l-0.8,0.7l-1,0l-1.5,0.8l-0.4,0l-1.2-0.5
	l0,0l-0.4-0.1l-0.8-0.7l-0.4-0.2l-1-0.3l-0.3-0.3l-0.6,0l-2.1,0.9h-0.4l-0.1-0.5l-1.1-1l-0.3-0.2l-1.4,0.1l-0.5-0.1l-0.9-0.3
	l-1.3-0.2l-0.4-0.1l-0.8,0.2l-0.2,0.1l-0.2,0.2l-0.1,0.2l-0.1,0.2l-0.1,0.2l-0.2,0.1l-0.4,0l-1.4-0.7H134l-0.2,0.1h-0.2l-0.2,0
	l-0.2-0.1l-0.5-0.6l-1-0.8l-0.9-1l-0.4-0.3l-1.4-0.5l-0.5-0.1l-0.4,0.2l-0.4,0.6l-0.5,1.4l-0.3,0.5l-0.9,0.7l-0.3,0.1l-0.3-0.1
	l-0.3-0.2l-0.3-0.2l-0.4-0.2l-0.3,0l-0.2,0.4l0.2,0.7l-0.2,0.4l-0.4,0.3l-0.4,0.1l-0.8-0.6l-0.2-0.4l0.4-0.4l0-0.5l0.1-0.3l0.1-0.3
	l-0.2-0.6l-0.2-0.4l-0.3-0.3l-0.6-0.6l-0.8-0.4l-0.1-0.2l-0.3-0.2l-0.4,0.1l-0.3,0.2l-0.4,0.1H118l-0.3,0.2h-0.1l-0.1-0.1l-0.4-0.7
	l-0.3-1l-0.3-0.6l-1.5-2.1l-0.1,0l-0.1,0h-0.1l-0.4,0.2l-0.3,0l-0.3-0.1l-0.4-0.2h-0.2l-0.1,0l-0.2,0.1l-0.2,0.1l-0.2,0l-0.1-0.1
	l-1-1.6l-0.2-0.6l0-0.4l0.1-0.4v-0.3l-0.2-0.3l-0.2,0l-0.6,0v-0.5l0.3-0.9l-0.7-0.4l-0.7-0.1l-0.7,0.3l-0.2,0.2h-0.1l-0.5-0.1l0-2.3
	l0.2-0.5l0.1-0.5L108,310l0.1-0.6l0.3-0.5l1.4-1.1l0.1-0.2l0.2-0.5l0.2-0.2l0.3-0.2l0.5-0.2l0.3-0.2l0.3-0.4l0.3-0.6l0.1-0.7l0-0.7
	l0.1-0.4l0.2-0.2l0.2-0.2l0.2-0.3l0.2-0.4l0.1-0.2l-0.1-1.1l0-0.3v-0.2l0.1-0.4l0.2-0.3l0.5-0.4l0.2-0.3l0.1-0.2v-0.4l0-0.2l0.3-0.6
	l0.4-1.3l0.4-0.3l0.8-0.1l0.3-0.3v-0.5l0.1-0.7l0.2-0.7l0.2-0.5l0.4-0.4l0.4,0.1l0.8,0.9l0.5,0.3l0.4,0.1l0.4-0.1l0.8,0.1l0.5-0.2
	l0.2,0l0.2,0.2l0.4,0.6l0.2,0.1l0.4,0.2l0.5,0.4l0.4,0.2l0.2-0.5l-0.1-0.2l-0.3-0.6l-0.1-0.3l0-0.4l0.2-0.6V293l-0.3-0.3l-0.9-0.5
	l-0.4-0.3l-0.6-0.8l-0.7-0.5l0.1,0h0l-0.3-0.2l-0.3,0.3l-0.1,0.1l-0.1-0.2l0.1-0.4l0.3-0.7l0.3-1.1l0.3-1l0.1-0.5l-0.3-2.9l-0.1-0.5
	l-0.1-0.2l-0.4-0.5l-0.3-0.4l-0.1-0.2l-0.1-0.4l-0.1-1.4l-0.1-0.5l-0.4-1.2l0.5-1.2l1.6-2.1l0.4-1l0.2-0.3l0.2-0.2l0.4-0.1l0.2-0.1
	l0.3-0.4l1.3-2.3l0.2-0.2l0.2-0.1l0.4-0.1l0.2-0.2l0.1-0.2l0.2-0.7l0.1-0.3l0.9-0.9l2.2-3.3l0.8-0.9l0.8-0.6l0.6-1l4.7-5.2l0.9-0.7
	l1.1-0.9l0.6-0.5l1.6-1.8l0.3-0.4l0.3-0.9l0.2-0.5l0.3-0.3l0.4-0.2l0.7-0.2l3.7-0.1l1.1-0.5l0.5-1.1l0.1-0.3l0-0.4l0-0.6l0.1-0.4
	l1.3-0.7l0.4-0.4l0.3-0.4l0-0.1l-0.1-0.1l-0.1-0.4l-0.2-1.6l0.5-0.8l-0.5-1.3l-0.2-0.7l0.1-0.8l-0.5-0.1l-0.6-0.3l-0.3-0.5l0.3-0.6
	v-0.2l-0.6-0.1l-0.5-0.2l-0.3-0.4l0-0.6l0.3-0.6l0.5-0.4l0.6-0.1l0.5,0.3l0.4-0.2h0.7l0.6-0.1l0.3-0.6l-0.3-0.4l-1.7-1l-1.4-1.3
	l-0.3-0.5l-0.1-0.4l0-0.3l-0.1-0.3l-0.2-0.3l-0.3-0.2l-0.3-0.1l-0.2-0.1l0.1-0.3v-0.2l-0.2-1.4l-0.2-0.4l-0.5-0.8l-0.3-0.7l0.1-0.3
	l0.3-0.2l-0.2-0.4l-1-1l-1-0.7l-0.5-0.6l-1.1-2.6l-0.3-0.2h-0.4l-0.3-0.2l-0.1-0.7l0.1-0.4l0.3-0.5l0.4-0.4l0.4-0.2l-0.1-0.4l0-0.3
	l0.2-0.2l0.2-0.1l-0.2-0.4l-0.8-1.3l0-0.2l0.3-0.7l-0.3-0.2l-0.4-0.1l-0.5-0.2l-0.1-0.5l0-0.2l0.2,0.2l0.2-0.1l0.1-0.5l-0.1-0.3
	l-0.6-1.6l-0.1-0.3l0-0.3l0.3-0.4l0.2-0.2l0.3-0.1l2-0.5h0.5l1.5,0.4l0.5,0.1l0.8,0.3l0.6,0.7l0.6,0.6l0.8-0.1l3.1-2.8l2.3-1.6
	l0.6-0.8l0.5-2.2l0.3-0.7l0.8-1.1l0.4-0.5l0.4-0.2l5.2-0.4l1.3,0.3l0.4,0l5.8-0.9l1.8-1l0.9-0.3l0.9,0l3.5,0.9l6.9,0.1l1.7-0.3
	l4.4,0.8l1.4-0.1l0.6,0.1l1.3,1.2l0.6,0.3l4.8,0.2l0.2,0.1v0.2l-0.1,0.3l0.1,0.3l0.3,0.4l0.3,0.2l4.6,0.2l3.9,1.8l1.4,0.2l2.1-0.7
	l1.8,0.1l0.9,0.2l0.5,0.3l0.1,0.5l-0.1,0.7v0.9l0.2,0.7l0.3,0.3l0.4,0.1l0.5-0.1l0.6,0.2l-0.1,0.6l-0.3,0.7l-0.1,0.6l0.3,0.3
	l0.4-0.1l0.8-0.3l1.2,0.2l0.4,0l0.4-0.2l0.6-0.6l0.4-0.2l0.7,0l2.2,0.9l1.2,0l0.3,0.2l0.3,0.7l-0.2,0.8l-0.7,1.7l0.1,0.3l0.3,0.3
	l0.3,0.3l0.3,0.1l0.3-0.1l0.2-0.2l1-1.3l0.1-0.2l0.1-0.4l0-0.4l0-0.4v-0.4l0.1-0.7l0.3-0.6l0.4-0.4l0.5-0.1l0.4,0.2l1.2,1.4l0.4,0.2
	l0.4,0.1h2l0.4-0.2l0.5-0.4l0.7-1.3l0.4-0.6l0.4-0.4l0.5-0.2l0.4,0l0.3,0.3l0.1,0.3v0.3l0,0.3l0.2,0.4l0.3,0.3l0.6,0.4l0.3,0.3
	l0.1,0.3l0.2,0.9l0.1,0.3l0.3,0.1l0.3-0.2l0.5-0.5l1-0.7l0.5-0.2h0.6l1.8,0.4l0.5,0.2l0.2,0.4l0.1,0.7l0.3,1.9l0.1,0.5l0.2,0.3
	l0.3,0.2l0.3-0.1l0.3-0.2l0.3,0l0.2,0.4l0.2,0.6l0.2,0.3l0.4-0.4l0.1-0.5L245,215l0.1-0.6l0.4-0.9l0.6-0.7l0.7-0.5l0.6-0.4l0.6-0.1
	h1.3l0.5-0.2l0.4-0.4l0.5-1.1l0.4-0.4l0.4-0.2l0.4,0l0.8,0.2l0.5,0.3l0.3,0.4l0.4,1.2l0.7,1.1l0.2,0.6l0.1,0.9l-0.2,0.9l0.1,0.4
	l0.3,0.3l0.4,0.5l0.2,0.7l0.2,0.7l0.3,0.6l0.5,0.3l0.4-0.2l0.8-0.7l0.5-0.2l0.9,0.4h0.4l0.3-0.6l0.3-0.8l0.2-0.4l0.3-0.2l0.5-0.1
	l0.5-0.2l0.3-0.4l0.2-0.4l0.4-0.4l0.4-0.2l0.5-0.1l0.4,0.1l0.4,0.3l0.3,0.6l0.2,0.5l0.3,0.4l1.9,0.3l0.4-0.1l0.2-0.2l0.3-0.6
	l0.3-0.2l0.2,0l0.3,0.2h0.3l1.2-0.7l0.5-0.2l2.9-0.1l0.6,0.2l0.6,0.4l0.8,1.1l0.3,0.3l1,0.5l0.3,0.3l0.2,0.2l0.1,0.2l0,0.3v0.3
	l0,0.3l-0.2,0.7l-0.1,0l0.2,0.3l0.6,0.8l0.3,0.3l0.3,0.1h0.6l0.3,0.1l0.3,0.3l0.5,0.7l0.3,0.1l0.3,0l0.3,0.1l0.3,0.2l0.2,0.3
	l0.2,0.3l0.2-0.1l0.1-0.2l0-0.8l0.1-0.1l0.4-0.7l0.1-0.5l0.6-0.5l0.6-0.6l-0.1-0.9l0.3-0.1l0-0.2l-0.2-0.2l-0.1-0.2l-0.2-0.9
	l-0.1-0.2l-0.3-0.2h-0.2l-0.2-0.1l-0.1-0.4l0.1-0.4l0.2-0.2l0.2-0.1l0.3,0.1V215l-0.2-0.1l-0.2-0.1l-0.2-0.3l-0.1-0.4l0.1-0.3
	l-0.1-0.3l-0.2-0.2l-0.3-0.2l0.2-0.2l0.1-0.2l0.2-0.4l-0.3-0.2l-0.7-0.2l-0.2-0.3v-0.2l0.1-0.1l0.1-0.1l0.1-0.1l0.2-0.1v-0.2
	l-0.2-0.1l-0.4-0.3v-0.2l0.6-0.6l0.3-0.1l-0.1-0.3l-0.1-0.1l0.1-0.1l0.2-0.3l0.2-0.1l-0.1-0.5l0.2-0.7l-0.1-0.4l0.3-0.1l0.7,0
	l0.2-0.1l0.1-0.3l0-0.4l0.1-0.4l0.2-0.3v-0.3l-0.2,0l-0.4-0.2l0.3-0.3l0.5-0.3l0.4-0.4l0-0.5l-0.2-0.3v-0.1l0.1-0.1l0.1-0.2l0.4-0.6
	l0.1-0.1l0.1-0.1l0.1-0.2l0.1-0.2l0.4-0.2l0.1-0.3v-0.3l0.1-0.2l0.2-0.1l0.6,0.1l0.2-0.1l0.2-0.2l0.3-0.4v-0.2l-0.1-0.1l-0.1-0.2
	v-0.1l0.6-0.2l0.3-0.2l0.3-0.2l0.2-0.3l0.2-0.3v-0.3l0.1-0.2l0.2-0.2l0.2-0.1l0.1-0.1l0.1,0.1l0.1,0.2l0.5,0l0.2-0.4l-0.2-0.5
	l-0.6-0.1l0.1-0.2l0.1-0.2l0.1-0.2l0.1-0.2l-0.1-0.6l0.3-0.4l0.5-0.2l2.8-0.2l0.8,0.1l0.5,0.3l1,0.8l0.5,0.2l0.5-0.2l0.3-0.6
	l0.3-0.7l0.4-0.5l1.6-0.7h1.9l3.6,0.7l2.4-0.1l1.3-0.1l0.7,0.1l0.5,0.5l0.1,0.6v0.6l0.1,0.5l0.4,0.2l0.3-0.1l1.1-0.6l0.8-0.1
	l1.3,0.3l0.4,0l2.9-1.4l0.9-0.7l0.6-1.3l0.3-2.1l0.2-0.6l0.2-0.2l0.3-0.2l0.2-0.2l0.1-0.4l-0.1-0.3l-0.4-0.7l-0.1-0.4l0.3-1.2
	l0.8-0.2l1.8,0.7l1-0.3l4.1,2.2h0.6l1.2-0.3h0.6l0.3,0.2l0.6,0.5l0.4,0.1l0.4-0.2l2.1-1.9l0.4-0.2l0.2,0l0.3,0.2l0.2-0.1l0.2-0.2
	l0.2-0.5l0.2-0.1l0.4-0.2l0.3-0.3l0.5-0.7l0.3-0.2l0.3-0.1l2,0.4h1.3l0.4,0.1l0.6,0.4l0.3,0.2l0.4,0l0.3-0.2l0.3-0.3l0.3-0.2
	l0.4,0.6l-0.1,1.3l0.4,0.6l0.4-0.1l1.4-1.4l1.8-0.9l0.9-0.2l0.9,0l0.5,0.2l0.2,0.3l0.2,0.5l0.3,0.6l0.4,0.4l0.9,0.6l0.4,0.6l0.5,1.2
	l0.3,0.4l1.3,0.9l0.3,0.4l0.3,0.6l0.2,0.4l0.1,0.3l0.1,0.3v0.4l-0.4,0.8v0.2l0.1,0.6l0.1,1.1l0.1,0.7l0.3,0.6l0.4,0.7l0.1,0.6
	l-0.2,0.5v0.3h1l0.4,0.3l0.8,1l0.1,0.1l0.3,0.2l0.1,0.1l0.1,0.2l0.1,0.5v0.1l0.2,0.1l0.4-0.2h0.2l0.4,0.3l0.7,0.8l0.4,0.3l0.8,0.8
	l0.6,1.3l0,1.4l-0.8,0.9L361,207l-1.2,0l-3.5,0.8l-0.8,0.5l-0.2,0.8l0.2,0.3l0.7,0.2l0.3,0.2l0.1,0.2l0.1,0.7l0.1,0.3l0.2,0.3l0.9,1
	l0.3,0.5l0.2,0.6l0.1,0.7l-0.1,0.3L358,215l-0.1,0.3l0,0.3l0.1,0.3l0.1,0.3l-0.1,0.3l-0.1,0.3l-0.5,0.1l-0.1,0.2l0.1,0.3l0.2,0.3
	l0.4,0.4l0.3,0.2l0.3,0.2l0.4,0.1h0.3l0.4-0.2l0.2,1.1l-0.5,1.1l-0.8,0.9l-1.2,0.8l1.5,0.7l0.5,0.1l0.4-0.2l0.8-0.7l0.7-0.2l0.8,0.1
	l1.5,0.5l0.7,0.3l1.3-0.2l0.6,0.1l0.3,0.3l0.1,0.4l0.1,0.5l0.2,0.5l0.3,0.3l0.4,0.1l1.5,0.1l1.4-0.3l1.7-0.7l1-0.6l0.3,0l0.4,0.2
	l0.4,0.3l0.4-0.1l0.4-0.2l0.4-0.1l0.4,0.2l0.3,0.3l0.2,0.5l0.5,3.1l0.4,1.1l0.6,0.6l0.7,0.1l1.4-0.3l0.7,0.1l0.4,0.1l0.4,0.2
	l0.2,0.4l-0.2,0.6l-0.3,0.3l-1.1,0.2l0.1,0.4v0.9l0.1,0.3l0.2,0.2l0.5,0.1l0.3,0.2l0.3,0.4l0,0.4l-0.1,0.4l0,0.5l0.2,0.4l0.4,0.6
	l0.2,0.4l0.1,0.5l-0.1,0.4l0,0.3l0.3,0.3l0.5,0.3l0.2,0.2l0.2,0.3l0.2,0.9l-0.1,0.8l0,0.7l0.5,0.6l-1.6,0.7l-0.3,0.4l0,0.4l1,4
	l0.4-3.2l0.7,0.3l0.4,0.1l0.4,0.2l0.4,0.3l0.3,0.6l0.2,0.8l0,0.6l0.1,0.5l0.4,0.5l0.4,0.3l0.4,0.2l0.4,0.1l0.4,0l0.5-0.2l0.3-0.3
	l0.2-0.4l0.3-0.4l0.2-0.1h0.4l0.2-0.1l0.2-0.2l0.4-0.6l0.3-0.2l0.4-0.1l2-0.2l3.6-2.7l0.6,0.3l0.2,0.6l0.6,0.3l2.1,3.3l0.5,0.2
	l0.5,0l0.5-0.2l0.5-0.3l0.4-0.4l0.2-0.1h0.3l0.2,0.1l0.4,0.3l0.5,0.1l0.6,0.4l0.6,0.2l0.2,0.1l0.3,0.2l0.1,0.1L406,248l0,0.7
	L406,249l0.1,0.3l0.3,0.3l0.4,0.2l0.5,0.1l0.5-0.1l0.4-0.3l0.2-0.3l0.3-0.7l0.2-0.3l0.3-0.3l3.4-2.1l1.4-0.5l1.4-0.1l1.5,0.2l3,6.1
	l0.6-0.5l1.2-1.3l0.6-0.3l2.1-0.3l0.4,0.2l0.3,0.8l0.3,1.1l0.3,0.9l1.8,0.9l0.7,0.7l0.1,1.4l-0.2,0.8l-0.1,0.3l0,0.3l0.2,0.2
	l0.7,0.7l2,3.1l0.7,0.5l1.6,0.8l0.8,0.5l0.7,0.6l0.6,0.8l0.7,1.2l0,0.1l0.3-6.4v0.5l0.1,0.2l1.4-0.9l0.3-0.1l0.2,0.1l0.4,0.3
	l0.2,0.1l1-0.7l0.1-1.4l-0.2-1.5l0.2-1l0.3-0.1l1.3,0.1l0.6-0.1l0.4,0.1l0.3,0.4l0.6,1.9l0.2,0.4l0.4,0.2l0.9,0.1l0.4,0.2l0.5,0.3
	l0.8,0.3l1.5-0.3l1,0.2l0.2-0.1l0.2-0.1l0.5-0.2l0.1-0.1v0.1l0.2,0.6l0.1,0.5l0.1,0.3l0.1,0.1l1.2,0.9l2.2,0.6l0.7,0.7l0.5,0.8
	l0.5,0.6l2-0.1l0.3-0.1l0.4-0.3l0.7-1l0.4-0.4l0.8-0.3l0.5,0.5l1.1,3l0.5,0.7l0.6,0.4l0.8,0.2l0.8-0.2l0.8-0.4l0.8-0.2l0.8,0.5
	l0.4,0.2l1.2,0.1l0.3,0.3l0.2,0.7l0.3,1.4l0.5,1.1l0.6,0.4l0.7,0.2l0.8,0.4l1.1,1.1l0.4,0.2l0.6,0l0.6-0.1l0.6-0.2l0.5-0.3l1.2-1.3
	l0.5-0.2h0.4l2,0.6l0.3,0.3l-0.1,0.7L480,271l-0.8,0.5l-0.4,0.3l-0.4,1.1l0.1,1l0.4,0.9l0.8,1.3l1,1.2l0.2,0.5L480.9,278.4z
	 M325,386.5l0.2-0.2h0.1l0.2,0.2l3,0.4l1.4-0.3l0.6,0l0.7,0.5l0.9-0.4l0.5-0.1l0.2,0.3l0.2,0.2l0.9-0.1l0.3,0.4l-0.4,0.4L325,386.5z
	"/>
<path id="text_x5F_1_x5F_" class="st7" d="M379.4,506.4c-114,43.6-241.7-13.4-285.3-127.4s13.4-241.7,127.4-285.3
	s241.7,13.4,285.3,127.4S493.4,462.8,379.4,506.4z"/>
<text id="text_3_"><textPath  xlink:href="#text_x5F_1_x5F_" startOffset="10.319%">
<tspan  class="st0" style="font-family:'Roboto-Bold'; font-size:65px; letter-spacing:10;">         </tspan></textPath>
</text>
</svg>
