<?xml version="1.0" encoding="utf-8"?>
<!-- Generator: Adobe Illustrator 22.0.1, SVG Export Plug-In . SVG Version: 6.00 Build 0)  -->
<svg version="1.1" id="Capa_1" xmlns="http://www.w3.org/2000/svg" xmlns:xlink="http://www.w3.org/1999/xlink" x="0px" y="0px"
	 viewBox="0 0 512 464" enable-background="new 0 0 512 464" xml:space="preserve">
<g>
	<g>
		<path d="M503.4670105,78.4000015h-110.934021v-3.1999969c0-35.8829994-29.1839905-65.0670013-65.0669861-65.0670013H184.5330048
			c-35.8829956,0-65.0670013,29.1839981-65.0670013,65.0670013v3.1999969H8.533c-4.71,0-8.533,3.822998-8.533,8.5329971v24.8659973
			v269.5339966c0,39.9960022,32.5379982,72.5329895,72.5329971,72.5329895h366.9330139
			c39.9960022,0,72.5329895-32.5379944,72.5329895-72.5329895V112.53302V86.9330215
			C512,82.2229996,508.177002,78.4000015,503.4670105,78.4000015z M136.5330048,75.1999969c0-26.4700012,21.5299988-48,48-48
			h142.9329987c26.4700012,0,48,21.5299988,48,48v3.1999969h-17.0660095v-3.1999969
			c0-17.0579987-13.875-30.9329987-30.9330139-30.9329987H184.5330048c-17.0579987,0-30.9329987,13.875-30.9329987,30.9329987
			v3.1999969h-17.0670013V75.1999969z M341.3330078,75.1999969v3.1999969H170.6670074v-3.1999969
			c0-7.6459961,6.220993-13.8669968,13.8670044-13.8669968h142.9329987
			C335.1130066,61.3330002,341.3330078,67.5540009,341.3330078,75.1999969z M494.9330139,381.3330078
			c0,30.5830078-24.8829956,55.4670105-55.4670105,55.4670105H72.5329971
			c-30.5830002,0-55.4669991-24.8829956-55.4669991-55.4670105V195.1190033
			c14.6350002,37.3079987,38.1349983,71.6289825,68.2669983,89.8650055v40.8829956
			c0,4.7099915,3.822998,8.5329895,8.5329971,8.5329895h59.7340164c4.7100067,0,8.5330048-3.822998,8.5330048-8.5329895v-18.2269897
			c2.6029968,0.1279907,5.1880035,0.4100037,7.798996,0.4179993l170.6669922,0.7340088c0.1789856,0,0.3580017,0,0.54599,0
			c2.901001,0,5.8200073-0.1109924,8.7210083-0.3070068v17.3819885c0,4.7099915,3.822998,8.5329895,8.5329895,8.5329895h59.7330017
			c4.7099915,0,8.5329895-3.822998,8.5329895-8.5329895v-46.5410156
			c29.5509949-21.4779968,53.3760071-52.651001,68.2669983-87.3809967v189.3880157H494.9330139z M102.4000015,317.3330078
			v-51.2000122h42.6669998v51.2000122H102.4000015z M366.9330139,317.3330078v-51.2000122h42.6669922v51.2000122H366.9330139z
			 M494.9330139,112.5330048c0,53.7859955-26.9400024,110.0120087-68.2669983,145.1089935v-0.0419922
			c0-4.7099915-3.822998-8.5329895-8.5329895-8.5329895h-59.7330322c-4.7099915,0-8.5329895,3.822998-8.5329895,8.5329895v33.723999
			c-3.0889893,0.2130127-6.178009,0.3500061-9.1990051,0.4100037L170.0009918,291
			c-2.628006-0.0079956-5.2400055-0.2820129-7.8679962-0.427002v-32.9729919c0-4.7099915-3.822998-8.5329895-8.5330048-8.5329895
			H93.8669968c-4.7099991,0-8.5329971,3.822998-8.5329971,8.5329895v6.8269958
			c-42.4620018-32.1279907-68.2669983-101.1199951-68.2669983-152.6360016V95.4670029h102.4000015h51.2000046h170.6670074
			h51.2000122H494.934021v17.0660019H494.9330139z"/>
	</g>
</g>
</svg>
